<svg width="48" height="65" viewBox="0 0 48 65" fill="none" xmlns="http://www.w3.org/2000/svg">
<path d="M45.7234 34.9691H46.7623C46.9391 34.9721 47.1133 35.0123 47.2736 35.087C47.4338 35.1616 47.5765 35.2691 47.6923 35.4025C47.8082 35.5359 47.8946 35.6921 47.9459 35.861C47.9972 36.0298 48.0122 36.2076 47.9901 36.3827C47.0682 43.8482 43.5975 50.7691 38.1618 55.981C32.7262 61.193 25.6574 64.3779 18.1446 65C17.8131 61.1848 18.2798 57.3424 19.5149 53.7166C20.75 50.0907 22.7267 46.7605 25.3196 43.9371C27.9125 41.1136 31.0651 38.8585 34.5774 37.3147C38.0898 35.771 41.8853 34.9722 45.7234 34.9691ZM22.5836 39.524C25.61 36.4742 29.2148 34.0562 33.1877 32.4113C37.1606 30.7663 41.422 29.9272 45.7234 29.943H46.6993C46.8785 29.9484 47.0567 29.9155 47.2221 29.8467C47.3875 29.7778 47.5363 29.6745 47.6585 29.5437C47.7807 29.4128 47.8735 29.2575 47.9306 29.088C47.9878 28.9185 48.0081 28.7388 47.9901 28.5608C47.1123 21.2917 43.815 14.5267 38.6263 9.34945C33.4376 4.1722 26.6577 0.882189 19.3724 0.00635577C19.1941 -0.0116087 19.014 0.00861544 18.8441 0.0656771C18.6743 0.122739 18.5185 0.215323 18.3874 0.337241C18.2563 0.459158 18.1528 0.607601 18.0837 0.772646C18.0147 0.937691 17.9818 1.11553 17.9872 1.29429C18.1291 5.75005 17.3529 10.1874 15.7067 14.3318C14.0604 18.4762 11.5791 22.2392 8.41647 25.3881C5.39008 28.4379 1.78529 30.8559 -2.1876 32.5008C-6.16048 34.1458 -10.4219 34.9849 -14.7232 34.9691H-15.6992C-15.8783 34.9637 -16.0566 34.9966 -16.222 35.0654C-16.3874 35.1343 -16.5362 35.2376 -16.6584 35.3685C-16.7806 35.4993 -16.8733 35.6546 -16.9305 35.8241C-16.9877 35.9936 -17.008 36.1733 -16.99 36.3513C-16.1122 43.6204 -12.8149 50.3854 -7.6262 55.5627C-2.43749 60.7399 4.34244 64.0299 11.6277 64.9058C11.806 64.9237 11.9861 64.9035 12.156 64.8464C12.3259 64.7894 12.4816 64.6968 12.6127 64.5749C12.7438 64.453 12.8474 64.3045 12.9164 64.1395C12.9854 63.9744 13.0183 63.7966 13.0129 63.6178C12.871 59.1621 13.6472 54.7247 15.2935 50.5803C16.9397 46.436 19.421 42.6729 22.5836 39.524ZM4.85894 21.8384C7.56773 19.1459 9.68581 15.9208 11.0787 12.3679C12.4716 8.81494 13.1088 5.01184 12.95 1.20005C12.9385 1.02901 12.892 0.862125 12.8135 0.709661C12.735 0.557197 12.626 0.422381 12.4933 0.313508C12.3606 0.204635 12.2069 0.124008 12.0418 0.0765877C11.8767 0.0291673 11.7037 0.0159565 11.5333 0.0377684C4.27707 0.923601 -2.47329 4.20692 -7.64245 9.36466C-12.8116 14.5224 -16.1022 21.2579 -16.99 28.498C-17.0119 28.6705 -16.9977 28.8457 -16.9483 29.0125C-16.8989 29.1793 -16.8153 29.334 -16.7028 29.4669C-16.5904 29.5997 -16.4515 29.7079 -16.295 29.7844C-16.1385 29.861 -15.9678 29.9043 -15.7936 29.9116C-11.9791 30.0619 -8.17468 29.4221 -4.62019 28.0327C-1.0657 26.6432 2.16181 24.5341 4.85894 21.8384Z" fill="#C4630A"/>
</svg>
