<svg width="127" height="135" viewBox="0 0 127 135" fill="none" xmlns="http://www.w3.org/2000/svg">
<path d="M110.785 77.0454C114.42 73.5735 119.285 71.6876 124.31 71.8027C129.335 71.9177 134.109 74.0243 137.581 77.659C141.053 81.2937 142.939 86.1587 142.824 91.1838C142.708 96.2089 140.602 100.983 136.967 104.454C133.45 107.814 128.987 109.544 124.514 109.71C124.144 114.17 122.212 118.549 118.695 121.909C115.06 125.381 110.195 127.267 105.17 127.152C100.145 127.037 95.371 124.93 91.899 121.295C88.4271 117.661 86.5412 112.796 86.6563 107.771C86.7714 102.746 88.878 97.9719 92.5126 94.5C87.0744 88.0752 81.6383 81.5611 75.8346 75.4855C70.031 69.4098 63.7725 63.6812 57.6034 57.9546C53.9688 61.4265 49.1038 63.3124 44.0786 63.1973C39.0535 63.0822 34.2799 60.9757 30.808 57.341C27.336 53.7063 25.4502 48.8413 25.5652 43.8162C25.6803 38.7911 27.7869 34.0175 31.4216 30.5455C34.9391 27.1855 39.4022 25.4557 43.8743 25.29C44.2445 20.8303 46.1768 16.4509 49.6943 13.0909C53.3289 9.619 58.1939 7.73313 63.2191 7.8482C68.2442 7.96327 73.0178 10.0698 76.4897 13.7045C79.9617 17.3392 81.8475 22.2042 81.7325 27.2293C81.6174 32.2545 79.5108 37.0281 75.8762 40.5C81.3143 46.9248 86.7505 53.4388 92.5542 59.5145C98.3578 65.5902 104.616 71.3188 110.785 77.0454Z" fill="#B5CFDD"/>
<path d="M41.7756 91.2836L42.1003 92.1675L43.0021 91.8964C43.6831 91.6918 44.3773 91.5565 45.0748 91.4896L44.9793 90.4942C46.5183 90.3466 48.072 90.5036 49.5504 90.9561L49.2577 91.9123C49.9276 92.1174 50.5807 92.3888 51.207 92.7256C51.8333 93.0624 52.4198 93.4577 52.9603 93.9035L53.5967 93.1321C54.7893 94.116 55.7769 95.3256 56.5022 96.691L55.6191 97.1602C55.9478 97.7789 56.2177 98.4327 56.4224 99.1137C56.6271 99.7947 56.7624 100.489 56.8293 101.186L57.8247 101.091C57.9723 102.63 57.8153 104.184 57.3627 105.662L56.4065 105.369C56.2015 106.039 55.93 106.692 55.5932 107.319C55.2564 107.945 54.8612 108.531 54.4153 109.072L55.1867 109.708C54.2028 110.901 52.9932 111.888 51.6279 112.614L51.1587 111.731C50.5399 112.059 49.8862 112.329 49.2052 112.534C48.5648 112.726 47.9217 112.856 47.2822 112.928L47.393 113.921C45.9384 114.084 44.4979 113.969 43.135 113.616L43.3857 112.648C42.7485 112.483 42.1296 112.261 41.5368 111.987L40.7321 111.615L40.266 112.369C39.9227 112.925 39.5288 113.451 39.0882 113.94L39.831 114.609C38.8885 115.655 37.7498 116.545 36.4468 117.212L35.9913 116.321C35.4185 116.614 34.8104 116.861 34.17 117.053C33.489 117.258 32.7948 117.393 32.0973 117.46L32.1928 118.455C30.6538 118.603 29.1001 118.446 27.6218 117.993L27.9145 117.037C27.2445 116.832 26.5914 116.561 25.9651 116.224C25.3388 115.887 24.7523 115.492 24.2118 115.046L23.5754 115.817C22.3828 114.834 21.3953 113.624 20.6699 112.259L21.553 111.789C21.2243 111.171 20.9544 110.517 20.7497 109.836C20.545 109.155 20.4097 108.461 20.3428 107.763L19.3474 107.859C19.1998 106.32 19.3568 104.766 19.8094 103.288L20.7656 103.58C20.9707 102.91 21.2421 102.257 21.5789 101.631C21.9157 101.005 22.3109 100.418 22.7568 99.8777L21.9854 99.2414C22.9693 98.0487 24.1789 97.0612 25.5442 96.3358L26.0134 97.2189C26.6322 96.8902 27.2859 96.6203 27.9669 96.4156L28.8687 96.1446L28.6523 95.2281C28.5384 94.7457 28.4245 94.262 28.3104 93.7776C28.1243 92.9868 27.9376 92.1943 27.7498 91.4029L26.7769 91.6338C26.1721 89.0853 25.5518 86.5363 24.872 84.0102L25.8376 83.7504C25.4946 82.476 25.1362 81.2057 24.7566 79.9428C24.377 78.6799 23.9757 77.4225 23.5592 76.1702L22.6103 76.4858C21.7848 74.0036 20.8969 71.535 19.9964 69.0753L20.9355 68.7315C20.6558 67.9678 20.3746 67.2037 20.0939 66.4413C19.922 65.9743 19.7503 65.5079 19.5794 65.0427L19.2547 64.1588L18.3529 64.4298C17.6719 64.6345 16.9777 64.7698 16.2802 64.8367L16.3757 65.8321C14.8367 65.9797 13.283 65.8227 11.8047 65.3701L12.0974 64.4139C11.4274 64.2089 10.7743 63.9374 10.148 63.6006C9.52174 63.2638 8.93522 62.8686 8.39473 62.4227L7.75836 63.1941C6.56575 62.2102 5.57817 61.0006 4.85281 59.6353L5.73592 59.1661C5.40719 58.5473 5.1373 57.8936 4.93262 57.2126C4.72793 56.5316 4.59266 55.8374 4.52576 55.1399L3.53033 55.2354C3.38272 53.6964 3.53974 52.1427 3.99228 50.6644L4.94848 50.9571C5.15357 50.2871 5.425 49.634 5.7618 49.0077C6.0986 48.3815 6.49382 47.7949 6.93971 47.2544L6.16832 46.6181C7.15219 45.4255 8.36181 44.4379 9.72716 43.7125L10.1963 44.5956C10.8151 44.2669 11.4688 43.997 12.1498 43.7923C12.7903 43.5998 13.4334 43.47 14.0729 43.3987L13.962 42.4048C15.4166 42.2426 16.8571 42.3569 18.22 42.7099L17.9693 43.6779C18.6065 43.8429 19.2254 44.0649 19.8182 44.3393L20.623 44.7117L21.089 43.9573C21.4323 43.4016 21.8262 42.8752 22.2669 42.3862L21.524 41.7168C22.4665 40.6709 23.6052 39.7813 24.9082 39.1147L25.3637 40.005C25.9365 39.7119 26.5446 39.4657 27.1851 39.2732C27.8661 39.0685 28.5603 38.9332 29.2577 38.8663L29.1623 37.8709C30.7013 37.7233 32.2549 37.8803 33.7333 38.3328L33.4406 39.289C34.1106 39.4941 34.7637 39.7655 35.3899 40.1023C36.0162 40.4391 36.6027 40.8344 37.1432 41.2802L37.7796 40.5089C38.9722 41.4927 39.9598 42.7023 40.6851 44.0677L39.802 44.5369C40.1308 45.1556 40.4006 45.8094 40.6053 46.4904C40.81 47.1714 40.9453 47.8656 41.0122 48.563L42.0076 48.4676C42.1552 50.0066 41.9982 51.5602 41.5457 53.0386L40.5895 52.7459C40.3844 53.4159 40.1129 54.069 39.7761 54.6952C39.4394 55.3215 39.0441 55.908 38.5982 56.4485L39.3696 57.0849C38.3858 58.2775 37.1761 59.2651 35.8108 59.9904L35.3416 59.1073C34.7228 59.4361 34.0691 59.706 33.3881 59.9106L32.4863 60.1817L32.7027 61.0981C32.8167 61.5806 32.9306 62.0644 33.0446 62.5489C33.2308 63.3396 33.4174 64.1321 33.6052 64.9234L34.5782 64.6925C35.183 67.241 35.8033 69.79 36.4831 72.316L35.5174 72.5759C35.8604 73.8503 36.2189 75.1206 36.5985 76.3835C36.978 77.6463 37.3793 78.9038 37.7958 80.1561L38.7447 79.8405C39.5702 82.3227 40.4581 84.7913 41.3586 87.2509L40.4196 87.5947C40.6992 88.3584 40.9804 89.1224 41.261 89.8848C41.433 90.3518 41.6047 90.8183 41.7756 91.2836Z" stroke="#C4630A" stroke-width="2" stroke-dasharray="6 6"/>
</svg>
