<svg width="98" height="98" viewBox="0 0 98 98" fill="none" xmlns="http://www.w3.org/2000/svg">
<path d="M94.5675 52.7226H96.1339C96.4005 52.7272 96.6632 52.7878 96.9048 52.9003C97.1464 53.0129 97.3615 53.175 97.5361 53.3761C97.7108 53.5771 97.841 53.8127 97.9184 54.0673C97.9957 54.3219 98.0184 54.5899 97.9851 54.8539C96.5951 66.1096 91.3623 76.5442 83.1671 84.4022C74.9718 92.2602 64.3142 97.0621 52.9872 98C52.4875 92.2478 53.191 86.4547 55.0532 80.9881C56.9154 75.5214 59.8956 70.5005 63.8049 66.2436C67.7142 61.9867 72.4674 58.5867 77.7629 56.2591C83.0585 53.9316 88.781 52.7273 94.5675 52.7226ZM59.68 59.59C64.2428 54.9918 69.6777 51.3463 75.6676 48.8662C81.6575 46.3861 88.0824 45.121 94.5675 45.1448H96.039C96.3091 45.153 96.5778 45.1034 96.8272 44.9996C97.0766 44.8958 97.3009 44.74 97.4851 44.5427C97.6693 44.3455 97.8092 44.1113 97.8954 43.8557C97.9817 43.6002 98.0122 43.3292 97.9851 43.061C96.6617 32.1013 91.6904 21.9018 83.8674 14.0961C76.0444 6.29039 65.8223 1.33007 54.8384 0.00958254C54.5696 -0.0175024 54.298 0.0129894 54.0419 0.0990208C53.7858 0.185052 53.551 0.324641 53.3533 0.508455C53.1556 0.69227 52.9995 0.916076 52.8955 1.16491C52.7914 1.41375 52.7418 1.68188 52.7499 1.95139C52.9639 8.6693 51.7936 15.3595 49.3116 21.6079C46.8295 27.8563 43.0886 33.5299 38.3202 38.2775C33.7574 42.8757 28.3224 46.5212 22.3325 49.0013C16.3427 51.4814 9.91775 52.7464 3.43266 52.7226H1.96121C1.69111 52.7145 1.42238 52.7641 1.17299 52.8679C0.923603 52.9717 0.699303 53.1275 0.515082 53.3247C0.33086 53.522 0.190963 53.7562 0.104741 54.0118C0.0185191 54.2673 -0.0120411 54.5383 0.0151038 54.8065C1.33851 65.7662 6.30981 75.9657 14.1328 83.7714C21.9558 91.5771 32.1778 96.5374 43.1618 97.8579C43.4306 97.885 43.7022 97.8545 43.9583 97.7685C44.2144 97.6824 44.4491 97.5429 44.6468 97.359C44.8445 97.1752 45.0006 96.9514 45.1047 96.7026C45.2088 96.4537 45.2584 96.1856 45.2503 95.9161C45.0363 89.1982 46.2066 82.508 48.6886 76.2596C51.1706 70.0111 54.9116 64.3376 59.68 59.59ZM32.9566 32.9256C37.0406 28.8661 40.234 24.0037 42.334 18.6469C44.4341 13.2902 45.3948 7.55631 45.1553 1.80931C45.138 1.55143 45.068 1.29982 44.9496 1.06995C44.8312 0.840082 44.6669 0.636821 44.4668 0.472674C44.2667 0.308527 44.0351 0.186966 43.7862 0.115471C43.5372 0.0439753 43.2763 0.0240575 43.0194 0.0569431C32.0793 1.39251 21.9018 6.34274 14.1083 14.119C6.31481 21.8953 1.35362 32.0503 0.0151038 42.9662C-0.0179768 43.2263 0.00342053 43.4905 0.0779401 43.7419C0.15246 43.9934 0.278479 44.2266 0.448024 44.427C0.617568 44.6273 0.826944 44.7903 1.0629 44.9058C1.29886 45.0212 1.55626 45.0865 1.81881 45.0975C7.57 45.324 13.3059 44.3595 18.6649 42.2646C24.024 40.1697 28.8901 36.9899 32.9566 32.9256Z" fill="#C4630A"/>
</svg>
