<svg width="137" height="118" viewBox="0 0 137 118" fill="none" xmlns="http://www.w3.org/2000/svg">
<path d="M98.9545 62.8669C102.006 58.3144 106.742 55.1608 112.119 54.0999C117.496 53.0389 123.075 54.1574 127.627 57.2094C132.179 60.2614 135.333 64.9968 136.394 70.374C137.455 75.7511 136.336 81.3295 133.284 85.8819C130.331 90.2876 125.987 93.1804 121.264 94.41C121.921 99.2454 120.895 104.363 117.941 108.769C114.889 113.321 110.154 116.475 104.777 117.536C99.3994 118.597 93.821 117.478 89.2686 114.426C84.7162 111.374 81.5626 106.639 80.5016 101.262C79.4406 95.8844 80.5591 90.306 83.6111 85.7535C76.3082 80.1941 68.9864 74.5392 61.3765 69.4375C53.7667 64.3358 45.7545 59.7107 37.8378 55.0668C34.7858 59.6192 30.0504 62.7728 24.6732 63.8338C19.2961 64.8948 13.7177 63.7763 9.16526 60.7243C4.61282 57.6723 1.45923 52.9368 0.398245 47.5597C-0.662734 42.1826 0.455799 36.6042 3.50778 32.0517C6.46138 27.6461 10.8058 24.7533 15.5279 23.5236C14.8718 18.6883 15.8976 13.5708 18.8512 9.16508C21.9031 4.61263 26.6386 1.45904 32.0157 0.398059C37.3929 -0.662918 42.9712 0.455619 47.5237 3.5076C52.0761 6.55959 55.2297 11.295 56.2907 16.6722C57.3517 22.0493 56.2331 27.6277 53.1812 32.1801C60.4841 37.7395 67.8059 43.3945 75.4157 48.4962C83.0256 53.5979 91.0378 58.2229 98.9545 62.8669Z" fill="#B5CFDD"/>
</svg>
