<svg width="230" height="254" viewBox="0 0 230 254" fill="none" xmlns="http://www.w3.org/2000/svg">
<mask id="path-1-inside-1_93_53" fill="white">
<path d="M48.3388 32.9555C61.4672 25.6231 82.0267 35.2186 94.3212 54.6175C106.57 73.8983 106.064 95.4924 92.9812 102.943C80.0157 110.348 59.3385 100.798 46.9262 81.4441C34.5592 62.2085 35.3008 40.5241 48.3388 32.9555ZM132.55 0.692317C147.425 -2.43329 162.348 13.2497 166.235 35.7342C169.814 58.4722 160.929 79.3486 146.217 82.5472C131.387 85.7909 116.582 70.0628 112.93 47.488C109.116 24.8403 118 3.9639 132.55 0.692317ZM6.14282 111.426C17.3522 100.495 39.635 104.012 56.1887 118.664C72.2893 133.896 76.7386 154.675 65.647 165.561C54.5554 176.448 32.4357 173.003 16.027 158.025C-0.381714 143.047 -4.6407 122.059 6.14282 111.426ZM218.142 30.2044C233.27 30.91 244.124 49.3707 241.924 71.4784C239.724 93.5862 225.568 110.929 210.042 110.24C194.516 109.552 183.942 91.1192 185.744 69.0287C188.27 47.0669 202.498 29.5611 218.142 30.2044ZM247.253 165.061C251.978 175.983 248.204 191.515 239.84 200.002C222.468 217.763 189.807 207.251 166.369 216.231C142.931 225.21 125.736 255.772 100.98 253.202C86.9849 251.927 72.9757 239.686 69.6198 226.344C64.9976 207.934 82.4597 190.408 90.0119 172.751C100.238 149.735 100.025 113.924 123.698 104.854C147.254 95.8298 171.548 121.873 194.009 132.907C212.603 142.308 239.053 146.125 247.253 165.061Z"/>
</mask>
<path d="M94.3212 54.6175L92.6319 55.6881L92.6331 55.69L94.3212 54.6175ZM92.9812 102.943L91.9915 101.205L91.9892 101.206L92.9812 102.943ZM46.9262 81.4441L48.6097 80.3644L48.6085 80.3625L46.9262 81.4441ZM166.235 35.7342L168.21 35.4232L168.208 35.4084L168.206 35.3935L166.235 35.7342ZM146.217 82.5472L145.792 80.5928L145.789 80.5934L146.217 82.5472ZM112.93 47.488L114.904 47.1687L114.902 47.1559L112.93 47.488ZM6.14282 111.426L4.74645 109.994L4.73859 110.002L6.14282 111.426ZM56.1887 118.664L57.5632 117.211L57.5391 117.189L57.5143 117.167L56.1887 118.664ZM65.647 165.561L64.2461 164.134L65.647 165.561ZM16.027 158.025L14.6786 159.502L16.027 158.025ZM218.142 30.2044L218.236 28.2065L218.224 28.2061L218.142 30.2044ZM241.924 71.4784L239.934 71.2804L241.924 71.4784ZM185.744 69.0287L183.757 68.8001L183.753 68.8331L183.751 68.8661L185.744 69.0287ZM247.253 165.061L249.089 164.267L249.088 164.266L247.253 165.061ZM239.84 200.002L238.415 198.598L238.41 198.603L239.84 200.002ZM100.98 253.202L101.186 251.213L101.174 251.211L101.161 251.21L100.98 253.202ZM69.6198 226.344L67.68 226.831L67.6802 226.832L69.6198 226.344ZM90.0119 172.751L88.1842 171.939L88.1785 171.952L88.173 171.964L90.0119 172.751ZM194.009 132.907L194.912 131.122L194.902 131.117L194.891 131.112L194.009 132.907ZM49.314 34.7016C50.0361 34.2983 50.7843 33.9519 51.5561 33.6611L50.1457 29.918C49.191 30.2778 48.262 30.7075 47.3635 31.2093L49.314 34.7016ZM56.4179 32.5752C58.0463 32.4325 59.7476 32.4819 61.5009 32.7208L62.0408 28.7574C60.0186 28.4819 58.0182 28.4197 56.0686 28.5905L56.4179 32.5752ZM66.5511 33.8899C68.1585 34.4092 69.7844 35.0709 71.412 35.8702L73.1751 32.2797C71.3862 31.4013 69.5824 30.6657 67.781 30.0836L66.5511 33.8899ZM76.0112 38.4967C77.4612 39.4431 78.897 40.4947 80.3061 41.6469L82.8382 38.5504C81.3219 37.3105 79.7709 36.1739 78.1974 35.147L76.0112 38.4967ZM84.2721 45.2318C85.5159 46.4701 86.7256 47.7893 87.8915 49.1851L90.9614 46.6209C89.7178 45.132 88.4255 43.7225 87.0943 42.3972L84.2721 45.2318ZM91.1447 53.4496C91.6528 54.1797 92.1489 54.9261 92.6319 55.6881L96.0105 53.5469C95.4967 52.7362 94.9688 51.942 94.4279 51.1648L91.1447 53.4496ZM92.6331 55.69C93.2202 56.6142 93.7769 57.5434 94.3031 58.4758L97.7866 56.5098C97.226 55.5166 96.6336 54.5277 96.0093 53.545L92.6331 55.69ZM97.1756 64.2778C98.0471 66.3154 98.7746 68.3469 99.3591 70.3522L103.199 69.2328C102.568 67.0688 101.786 64.8859 100.853 62.7048L97.1756 64.2778ZM100.738 76.6175C101.06 78.809 101.198 80.9339 101.156 82.9634L105.155 83.0453C105.202 80.7787 105.047 78.4317 104.696 76.0363L100.738 76.6175ZM100.397 89.1789C99.8991 91.2761 99.1643 93.1912 98.2048 94.8886L101.687 96.8569C102.85 94.7992 103.713 92.5266 104.289 90.1023L100.397 89.1789ZM94.4297 99.5004C93.6814 100.135 92.8691 100.705 91.9915 101.205L93.9709 104.681C95.0641 104.058 96.0799 103.346 97.0169 102.551L94.4297 99.5004ZM91.9892 101.206C91.2733 101.615 90.5299 101.966 89.7617 102.262L91.1963 105.996C92.1507 105.629 93.0779 105.191 93.9731 104.68L91.9892 101.206ZM84.9136 103.365C83.2897 103.512 81.5895 103.465 79.834 103.228L79.2989 107.192C81.3238 107.466 83.3249 107.525 85.2724 107.349L84.9136 103.365ZM74.7832 102.066C73.1758 101.549 71.5482 100.89 69.9176 100.094L68.1629 103.689C69.9539 104.563 71.7584 105.295 73.5591 105.874L74.7832 102.066ZM65.3104 97.4801C63.8573 96.5384 62.4175 95.4918 61.0038 94.3451L58.4841 97.4517C60.0046 98.685 61.5591 99.8155 63.135 100.837L65.3104 97.4801ZM57.0222 90.7773C55.7725 89.5445 54.5564 88.2313 53.3837 86.8417L50.3268 89.4215C51.5774 90.9033 52.8761 92.306 54.2131 93.6249L57.0222 90.7773ZM50.1086 82.5946C49.5966 81.8672 49.0966 81.1236 48.6097 80.3644L45.2427 82.5238C45.7606 83.3314 46.2926 84.1226 46.8376 84.8968L50.1086 82.5946ZM48.6085 80.3625C48.0149 79.4391 47.4527 78.5104 46.9218 77.5782L43.446 79.5577C44.0124 80.5523 44.6117 81.5423 45.2439 82.5257L48.6085 80.3625ZM44.0296 71.7703C43.1546 69.7288 42.4273 67.692 41.8457 65.6804L38.0031 66.7914C38.6316 68.9653 39.4149 71.1572 40.3531 73.3461L44.0296 71.7703ZM40.4854 59.3957C40.1732 57.199 40.0466 55.0674 40.1005 53.0298L36.1019 52.924C36.0417 55.1995 36.1836 57.5552 36.5252 59.9586L40.4854 59.3957ZM40.8992 46.7959C41.409 44.6951 42.1541 42.773 43.1206 41.0658L39.6398 39.0951C38.4733 41.1554 37.6003 43.4286 37.012 45.8525L40.8992 46.7959ZM46.9054 36.4161C47.655 35.7724 48.4673 35.1934 49.3428 34.6851L47.3347 31.2258C46.2463 31.8575 45.2342 32.5788 44.2996 33.3813L46.9054 36.4161ZM132.961 2.64958C133.956 2.44054 134.949 2.326 135.938 2.30088L135.836 -1.69783C134.606 -1.66658 133.371 -1.52395 132.138 -1.26494L132.961 2.64958ZM141.873 3.21084C143.738 3.82959 145.581 4.75702 147.368 5.97493L149.621 2.66954C147.558 1.26399 145.384 0.161215 143.132 -0.585784L141.873 3.21084ZM152.144 10.0723C153.552 11.5504 154.889 13.2195 156.133 15.061L159.447 12.8215C158.087 10.8086 156.612 8.96404 155.041 7.31401L152.144 10.0723ZM159.351 20.6409C160.275 22.5251 161.109 24.5251 161.839 26.6265L165.617 25.314C164.835 23.064 163.94 20.9141 162.943 18.8805L159.351 20.6409ZM163.625 32.8769C163.863 33.9252 164.077 34.9917 164.264 36.0749L168.206 35.3935C168.006 34.2414 167.779 33.1061 167.525 31.9892L163.625 32.8769ZM164.259 36.0452C164.4 36.9381 164.52 37.8278 164.622 38.7134L168.596 38.2589C168.488 37.3174 168.36 36.3718 168.21 35.4232L164.259 36.0452ZM165.003 44.0743C165.054 45.8958 165.022 47.6889 164.912 49.4439L168.904 49.6934C169.022 47.8172 169.055 45.904 169.002 43.9636L165.003 44.0743ZM164.325 54.7679C164.037 56.5689 163.663 58.3123 163.209 59.986L167.07 61.0322C167.562 59.2175 167.965 57.3358 168.275 55.3999L164.325 54.7679ZM161.523 65.0163C160.84 66.7001 160.067 68.2791 159.213 69.7386L162.666 71.7576C163.623 70.122 164.479 68.3698 165.229 66.5204L161.523 65.0163ZM156.222 73.9793C155.072 75.3266 153.834 76.4961 152.522 77.472L154.909 80.6816C156.482 79.5117 157.936 78.1318 159.264 76.5768L156.222 73.9793ZM148.162 79.887C147.392 80.1807 146.601 80.4169 145.792 80.5928L146.641 84.5015C147.649 84.2824 148.632 83.9886 149.586 83.6249L148.162 79.887ZM145.789 80.5934C144.799 80.8101 143.81 80.9314 142.827 80.9628L142.955 84.9608C144.183 84.9216 145.414 84.77 146.644 84.501L145.789 80.5934ZM136.92 80.0798C135.063 79.4656 133.231 78.5389 131.456 77.3178L129.189 80.6133C131.243 82.0266 133.413 83.1328 135.663 83.8773L136.92 80.0798ZM126.724 73.2082C125.334 71.7261 124.016 70.0516 122.791 68.2031L119.456 70.4119C120.796 72.4343 122.252 74.2874 123.807 75.9446L126.724 73.2082ZM119.638 62.6093C118.737 60.7227 117.927 58.7202 117.221 56.616L113.429 57.888C114.185 60.1418 115.056 62.2954 116.028 64.3328L119.638 62.6093ZM115.507 50.3646C115.281 49.317 115.079 48.2512 114.904 47.1687L110.956 47.8074C111.142 48.9588 111.356 50.0935 111.598 51.2099L115.507 50.3646ZM114.902 47.1559C114.753 46.268 114.623 45.383 114.514 44.502L110.544 44.9962C110.661 45.934 110.799 46.8757 110.958 47.8202L114.902 47.1559ZM114.084 39.1661C114.019 37.3521 114.036 35.5658 114.133 33.8168L110.139 33.5963C110.036 35.468 110.017 37.3762 110.087 39.3109L114.084 39.1661ZM114.682 28.5094C114.958 26.7135 115.321 24.9745 115.763 23.3041L111.897 22.2793C111.417 24.0914 111.026 25.97 110.729 27.9019L114.682 28.5094ZM117.417 18.2825C118.089 16.601 118.851 15.023 119.693 13.5632L116.228 11.5641C115.284 13.1997 114.441 14.9509 113.702 16.7982L117.417 18.2825ZM122.648 9.31725C123.787 7.96518 125.013 6.78997 126.311 5.80748L123.898 2.61751C122.342 3.79512 120.902 5.18101 119.589 6.74053L122.648 9.31725ZM130.634 3.36446C131.4 3.06543 132.185 2.82422 132.988 2.6436L132.111 -1.25896C131.108 -1.03334 130.13 -0.732581 129.179 -0.361497L130.634 3.36446ZM4.73859 110.002C3.8599 110.869 3.07078 111.798 2.37074 112.783L5.63106 115.1C6.19682 114.304 6.83487 113.553 7.54704 112.85L4.73859 110.002ZM-0.769836 119.311C-1.42905 121.555 -1.76343 123.928 -1.79337 126.374L2.20633 126.422C2.2322 124.309 2.52068 122.302 3.06807 120.438L-0.769836 119.311ZM-1.09781 133.37C-0.645061 135.575 0.0247098 137.805 0.902051 140.028L4.62269 138.559C3.82513 136.539 3.2239 134.531 2.82044 132.566L-1.09781 133.37ZM3.91026 146.237C5.02693 148.174 6.30201 150.085 7.7307 151.95L10.906 149.517C9.58081 147.787 8.40303 146.021 7.37543 144.239L3.91026 146.237ZM12.2165 157.122C13.0056 157.93 13.8264 158.724 14.6786 159.502L17.3753 156.548C16.5794 155.821 15.8134 155.08 15.0778 154.327L12.2165 157.122ZM14.6786 159.502C15.3819 160.144 16.0954 160.766 16.818 161.366L19.3757 158.291C18.7003 157.729 18.0331 157.148 17.3753 156.548L14.6786 159.502ZM21.3425 164.785C22.9297 165.871 24.5466 166.864 26.1819 167.761L28.1072 164.255C26.5871 163.421 25.0813 162.496 23.6006 161.483L21.3425 164.785ZM31.3057 170.242C33.0939 170.995 34.8913 171.636 36.6839 172.162L37.8097 168.323C36.1662 167.841 34.511 167.252 32.8576 166.556L31.3057 170.242ZM42.279 173.43C44.2254 173.74 46.1513 173.907 48.0369 173.925L48.0743 169.925C46.3982 169.909 44.6703 169.761 42.9079 169.48L42.279 173.43ZM53.8571 173.474C55.8353 173.136 57.7413 172.606 59.5445 171.873L58.038 168.167C56.5221 168.783 54.8973 169.239 53.1834 169.531L53.8571 173.474ZM64.7597 168.948C65.5618 168.351 66.326 167.697 67.0479 166.989L64.2461 164.134C63.6546 164.715 63.0279 165.25 62.3689 165.742L64.7597 168.948ZM67.0479 166.989C67.9305 166.123 68.725 165.198 69.4322 164.221L66.1926 161.875C65.617 162.67 64.9689 163.425 64.2461 164.134L67.0479 166.989ZM72.6574 157.714C73.3506 155.461 73.7127 153.082 73.7667 150.633L69.7677 150.545C69.7211 152.658 69.4097 154.667 68.8342 156.538L72.6574 157.714ZM73.1266 143.601C72.6877 141.383 72.0295 139.141 71.164 136.904L67.4336 138.348C68.2211 140.383 68.8118 142.402 69.2027 144.377L73.1266 143.601ZM68.1922 130.652C67.0885 128.7 65.8283 126.771 64.4177 124.885L61.2144 127.28C62.526 129.034 63.6927 130.821 64.7102 132.621L68.1922 130.652ZM59.9912 119.638C59.2125 118.815 58.403 118.006 57.5632 117.211L54.8142 120.117C55.6009 120.861 56.3585 121.619 57.0864 122.388L59.9912 119.638ZM57.5143 117.167C56.7986 116.533 56.0724 115.92 55.3371 115.327L52.8259 118.44C53.5138 118.995 54.1933 119.569 54.8631 120.162L57.5143 117.167ZM50.7424 111.959C49.1353 110.893 47.4985 109.918 45.8435 109.036L43.9624 112.566C45.5033 113.387 47.0299 114.297 48.5309 115.293L50.7424 111.959ZM40.6696 106.605C38.8677 105.869 37.0569 105.243 35.2513 104.73L34.1587 108.578C35.8175 109.049 37.4884 109.627 39.1574 110.308L40.6696 106.605ZM29.625 103.499C27.6698 103.2 25.7355 103.042 23.8415 103.032L23.8195 107.032C25.507 107.041 27.2466 107.182 29.0209 107.453L29.625 103.499ZM18.0008 103.499C16.0156 103.841 14.1024 104.374 12.2916 105.108L13.7944 108.815C15.3204 108.196 16.9553 107.738 18.6797 107.441L18.0008 103.499ZM7.05004 108.033C6.24295 108.632 5.47368 109.285 4.74647 109.994L7.53916 112.858C8.13591 112.276 8.76783 111.739 9.43224 111.247L7.05004 108.033ZM218.224 28.2061C217.21 28.1643 216.201 28.1922 215.2 28.2863L215.575 32.2687C216.398 32.1912 217.227 32.1685 218.06 32.2027L218.224 28.2061ZM209.346 29.6117C207.508 30.2755 205.729 31.1575 204.023 32.2296L206.152 35.616C207.633 34.6848 209.156 33.9332 210.704 33.3739L209.346 29.6117ZM199.366 35.7847C197.963 37.0579 196.63 38.4677 195.374 39.9964L198.466 42.5347C199.605 41.1474 200.805 39.8804 202.055 38.746L199.366 35.7847ZM192.011 44.672C191.011 46.2599 190.082 47.9357 189.233 49.6871L192.832 51.4319C193.618 49.8095 194.476 48.2637 195.395 46.8049L192.011 44.672ZM187.007 54.9527C186.365 56.7146 185.799 58.534 185.316 60.4012L189.188 61.4033C189.64 59.6594 190.168 57.9627 190.766 56.3222L187.007 54.9527ZM184.148 65.9765C183.997 66.909 183.866 67.8506 183.757 68.8001L187.731 69.2572C187.833 68.3685 187.955 67.4875 188.096 66.6151L184.148 65.9765ZM183.751 68.8661C183.657 70.0184 183.595 71.1615 183.565 72.2937L187.564 72.3989C187.592 71.3404 187.649 70.2706 187.737 69.1913L183.751 68.8661ZM183.778 79.1551C183.989 81.5009 184.34 83.7784 184.823 85.968L188.729 85.1063C188.284 83.0875 187.958 80.9784 187.762 78.797L183.778 79.1551ZM186.79 92.6055C187.64 94.8479 188.649 96.9559 189.804 98.8989L193.242 96.8549C192.213 95.1243 191.304 93.2272 190.53 91.187L186.79 92.6055ZM194.026 104.559C195.703 106.345 197.562 107.873 199.583 109.086L201.642 105.656C199.963 104.649 198.389 103.362 196.943 101.821L194.026 104.559ZM206.331 111.773C207.509 112.027 208.718 112.184 209.954 112.238L210.131 108.242C209.119 108.197 208.132 108.069 207.173 107.862L206.331 111.773ZM209.954 112.238C210.964 112.283 211.969 112.258 212.965 112.167L212.602 108.184C211.783 108.259 210.959 108.279 210.131 108.242L209.954 112.238ZM218.799 110.858C220.631 110.199 222.403 109.32 224.101 108.25L221.968 104.866C220.497 105.794 218.984 106.54 217.444 107.095L218.799 110.858ZM228.732 104.696C230.123 103.423 231.445 102.012 232.686 100.481L229.579 97.9623C228.455 99.3487 227.268 100.614 226.032 101.745L228.732 104.696ZM236.001 95.7988C236.984 94.2099 237.893 92.5321 238.72 90.7772L235.102 89.0712C234.337 90.6938 233.5 92.2385 232.599 93.6953L236.001 95.7988ZM240.875 85.5078C241.491 83.747 242.031 81.928 242.486 80.0597L238.6 79.1121C238.175 80.8549 237.673 82.5489 237.099 84.1856L240.875 85.5078ZM243.568 74.4931C243.705 73.5632 243.82 72.624 243.914 71.6765L239.934 71.2804C239.846 72.1666 239.738 73.0448 239.611 73.914L243.568 74.4931ZM243.914 71.6765C244.029 70.5284 244.109 69.3892 244.156 68.2609L240.16 68.0932C240.116 69.145 240.041 70.208 239.934 71.2804L243.914 71.6765ZM244.038 61.4152C243.854 59.0731 243.526 56.799 243.063 54.6121L239.15 55.4408C239.576 57.4533 239.88 59.5546 240.05 61.7269L244.038 61.4152ZM241.152 47.9824C240.32 45.7425 239.328 43.6361 238.192 41.6931L234.739 43.7125C235.752 45.444 236.646 47.3395 237.403 49.3757L241.152 47.9824ZM234.034 36.0225C232.378 34.2233 230.544 32.6811 228.553 31.4516L226.451 34.8546C228.104 35.8755 229.66 37.1765 231.091 38.7315L234.034 36.0225ZM221.855 28.6934C220.676 28.4284 219.468 28.2641 218.235 28.2066L218.049 32.2022C219.048 32.2488 220.025 32.3818 220.978 32.596L221.855 28.6934ZM249.088 164.266C248.629 163.205 248.116 162.188 247.553 161.212L244.088 163.21C244.575 164.055 245.02 164.936 245.418 165.856L249.088 164.266ZM243.533 155.736C242.026 154.083 240.36 152.582 238.574 151.206L236.133 154.374C237.758 155.627 239.247 156.972 240.577 158.431L243.533 155.736ZM233.067 147.522C231.204 146.432 229.263 145.423 227.272 144.475L225.553 148.087C227.461 148.996 229.299 149.952 231.045 150.974L233.067 147.522ZM221.343 141.859C219.368 141.043 217.365 140.261 215.364 139.496L213.936 143.232C215.921 143.991 217.887 144.759 219.817 145.556L221.343 141.859ZM209.394 137.237C207.396 136.48 205.422 135.723 203.488 134.944L201.994 138.654C203.966 139.449 205.97 140.218 207.977 140.978L209.394 137.237ZM197.715 132.473C196.76 132.033 195.825 131.584 194.912 131.122L193.107 134.692C194.069 135.178 195.049 135.649 196.043 136.106L197.715 132.473ZM194.891 131.112C194.087 130.717 193.279 130.301 192.466 129.867L190.581 133.395C191.43 133.849 192.279 134.285 193.128 134.702L194.891 131.112ZM187.69 127.149C186.135 126.216 184.569 125.236 182.99 124.222L180.829 127.589C182.432 128.617 184.034 129.62 185.632 130.579L187.69 127.149ZM178.33 121.175C176.782 120.149 175.238 119.116 173.672 118.076L171.458 121.407C173.009 122.438 174.572 123.483 176.12 124.509L178.33 121.175ZM168.979 114.987C167.396 113.96 165.804 112.949 164.207 111.968L162.114 115.377C163.676 116.336 165.239 117.329 166.802 118.343L168.979 114.987ZM159.314 109.089C157.636 108.149 155.949 107.259 154.254 106.436L152.507 110.034C154.12 110.817 155.738 111.671 157.359 112.579L159.314 109.089ZM148.984 104.124C147.152 103.413 145.309 102.8 143.455 102.309L142.431 106.176C144.123 106.624 145.825 107.189 147.536 107.853L148.984 104.124ZM137.678 101.206C135.704 100.983 133.721 100.925 131.733 101.06L132.003 105.05C133.733 104.933 135.475 104.983 137.228 105.181L137.678 101.206ZM125.832 102.053C124.88 102.313 123.93 102.624 122.982 102.987L124.414 106.722C125.238 106.406 126.063 106.137 126.888 105.911L125.832 102.053ZM122.982 102.987C122.033 103.351 121.118 103.755 120.236 104.198L122.032 107.772C122.795 107.389 123.588 107.038 124.414 106.722L122.982 102.987ZM115.183 107.418C113.615 108.655 112.185 110.034 110.876 111.53L113.886 114.165C115.047 112.838 116.3 111.632 117.661 110.558L115.183 107.418ZM107.352 116.247C106.316 117.861 105.372 119.56 104.502 121.324L108.089 123.093C108.902 121.445 109.774 119.879 110.719 118.407L107.352 116.247ZM102.178 126.59C101.485 128.34 100.842 130.135 100.236 131.96L104.032 133.22C104.618 131.454 105.236 129.731 105.897 128.063L102.178 126.59ZM98.5575 137.38C98.0344 139.179 97.5343 140.996 97.0471 142.816L100.911 143.85C101.394 142.047 101.886 140.26 102.398 138.497L98.5575 137.38ZM95.6222 148.245C95.1512 150.058 94.6834 151.861 94.2067 153.649L98.0717 154.679C98.5523 152.877 99.0235 151.061 99.4937 149.251L95.6222 148.245ZM92.7258 159.005C92.206 160.802 91.6676 162.565 91.0993 164.283L94.8969 165.54C95.4845 163.763 96.0379 161.95 96.5683 160.117L92.7258 159.005ZM89.2365 169.434C88.8973 170.287 88.5471 171.122 88.1842 171.939L91.8396 173.563C92.2256 172.694 92.5962 171.81 92.9532 170.913L89.2365 169.434ZM88.173 171.964C87.805 172.825 87.4113 173.688 86.9955 174.554L90.6017 176.285C91.0396 175.373 91.4576 174.457 91.8508 173.538L88.173 171.964ZM84.3402 179.655C83.4132 181.325 82.4364 183 81.4345 184.687L84.8735 186.73C85.8853 185.027 86.884 183.314 87.8375 181.596L84.3402 179.655ZM78.4212 189.715C77.41 191.403 76.4013 193.104 75.4269 194.812L78.9011 196.794C79.8544 195.123 80.8461 193.451 81.8527 191.771L78.4212 189.715ZM72.5844 200.056C71.6651 201.866 70.8112 203.692 70.0584 205.534L73.7612 207.047C74.4642 205.327 75.2697 203.601 76.1507 201.867L72.5844 200.056ZM68.0805 211.32C67.5386 213.332 67.1529 215.369 66.9708 217.43L70.9553 217.782C71.1141 215.984 71.4531 214.178 71.9428 212.361L68.0805 211.32ZM67.0879 223.72C67.2233 224.754 67.4191 225.792 67.68 226.831L71.5596 225.857C71.3367 224.969 71.1696 224.084 71.054 223.201L67.0879 223.72ZM67.6802 226.832C67.917 227.773 68.2023 228.706 68.5323 229.628L72.2984 228.28C72.0103 227.476 71.7633 226.667 71.5594 225.856L67.6802 226.832ZM70.9541 234.892C71.8889 236.547 72.9619 238.147 74.15 239.673L77.3061 237.215C76.2329 235.837 75.2704 234.4 74.4369 232.925L70.9541 234.892ZM77.9665 243.941C79.3276 245.273 80.7807 246.521 82.3064 247.665L84.7068 244.465C83.3212 243.426 82.0007 242.293 80.7641 241.082L77.9665 243.941ZM87.1085 250.787C88.7955 251.726 90.5418 252.541 92.3266 253.211L93.7316 249.466C92.1421 248.869 90.5762 248.139 89.0539 247.292L87.1085 250.787ZM97.9046 254.786C98.8646 254.969 99.8303 255.105 100.798 255.194L101.161 251.21C100.326 251.134 99.4882 251.016 98.6502 250.857L97.9046 254.786ZM100.773 255.191C101.928 255.311 103.069 255.364 104.196 255.354L104.16 251.354C103.182 251.362 102.191 251.317 101.186 251.213L100.773 255.191ZM110.96 254.542C113.155 254.036 115.286 253.313 117.363 252.42L115.783 248.745C113.898 249.556 111.995 250.199 110.063 250.644L110.96 254.542ZM123.279 249.376C125.137 248.271 126.961 247.053 128.758 245.761L126.423 242.514C124.7 243.753 122.973 244.904 121.234 245.938L123.279 249.376ZM133.926 241.817C135.593 240.482 137.249 239.104 138.897 237.717L136.321 234.657C134.683 236.036 133.055 237.39 131.425 238.696L133.926 241.817ZM143.782 233.587C145.412 232.215 147.04 230.86 148.678 229.545L146.174 226.426C144.5 227.769 142.845 229.147 141.206 230.527L143.782 233.587ZM153.675 225.71C155.386 224.468 157.108 223.301 158.851 222.232L156.761 218.822C154.913 219.955 153.103 221.183 151.326 222.473L153.675 225.71ZM164.274 219.294C165.204 218.86 166.14 218.46 167.084 218.098L165.653 214.363C164.615 214.761 163.592 215.198 162.582 215.669L164.274 219.294ZM167.084 218.098C168.03 217.736 168.994 217.406 169.975 217.105L168.802 213.281C167.739 213.607 166.689 213.966 165.653 214.363L167.084 218.098ZM175.968 215.639C177.979 215.256 180.037 214.958 182.135 214.722L181.687 210.747C179.509 210.992 177.348 211.304 175.219 211.709L175.968 215.639ZM188.407 214.181C190.502 214.046 192.616 213.946 194.742 213.859L194.578 209.862C192.438 209.95 190.289 210.051 188.149 210.189L188.407 214.181ZM201.128 213.609C203.277 213.521 205.426 213.422 207.556 213.285L207.3 209.293C205.215 209.427 203.101 209.525 200.965 209.612L201.128 213.609ZM214.023 212.725C216.215 212.474 218.379 212.154 220.498 211.733L219.719 207.81C217.729 208.205 215.675 208.51 213.569 208.751L214.023 212.725ZM226.917 210.068C229.054 209.363 231.125 208.507 233.107 207.459L231.238 203.923C229.478 204.853 227.616 205.626 225.664 206.27L226.917 210.068ZM238.757 203.708C239.624 202.993 240.462 202.225 241.269 201.4L238.41 198.603C237.703 199.325 236.97 199.997 236.212 200.623L238.757 203.708ZM241.264 201.405C242.044 200.614 242.783 199.77 243.48 198.881L240.332 196.413C239.723 197.189 239.083 197.92 238.415 198.598L241.264 201.405ZM247.042 193.271C248.036 191.326 248.871 189.271 249.532 187.158L245.714 185.964C245.119 187.867 244.368 189.712 243.48 191.451L247.042 193.271ZM250.973 180.72C251.275 178.511 251.383 176.285 251.276 174.095L247.28 174.292C247.375 176.219 247.281 178.198 247.01 180.177L250.973 180.72ZM250.223 167.472C249.914 166.377 249.538 165.305 249.089 164.267L245.417 165.855C245.792 166.721 246.11 167.623 246.372 168.555L250.223 167.472ZM94.3212 54.6175L90.9426 56.7588L90.9449 56.7625L94.3212 54.6175ZM92.9812 102.943L91.0018 99.467L90.9973 99.4695L92.9812 102.943ZM46.9262 81.4441L50.2932 79.2847L50.2908 79.2809L46.9262 81.4441ZM166.235 35.7342L170.186 35.1123L170.181 35.0825L170.176 35.0528L166.235 35.7342ZM146.217 82.5472L145.367 78.6385L145.362 78.6396L146.217 82.5472ZM112.93 47.488L116.879 46.8493L116.877 46.8365L116.874 46.8237L112.93 47.488ZM6.14282 111.426L3.35013 108.563L3.34223 108.57L3.33437 108.578L6.14282 111.426ZM56.1887 118.664L58.9376 115.759L58.8895 115.713L58.8398 115.669L56.1887 118.664ZM65.647 165.561L62.8451 162.707L65.647 165.561ZM16.027 158.025L13.3302 160.979L16.027 158.025ZM218.142 30.2044L218.329 26.2087L218.318 26.2082L218.307 26.2078L218.142 30.2044ZM241.924 71.4784L237.944 71.0823L241.924 71.4784ZM185.744 69.0287L181.77 68.5716L181.763 68.6375L181.757 68.7036L185.744 69.0287ZM247.253 165.061L250.924 163.473L250.924 163.471L247.253 165.061ZM239.84 200.002L236.991 197.194L236.985 197.199L236.98 197.205L239.84 200.002ZM100.98 253.202L101.393 249.223L101.368 249.221L101.343 249.218L100.98 253.202ZM69.6198 226.344L65.7402 227.318L65.7407 227.32L69.6198 226.344ZM90.0119 172.751L86.3565 171.127L86.3452 171.152L86.3342 171.178L90.0119 172.751ZM194.009 132.907L195.814 129.337L195.794 129.327L195.773 129.317L194.009 132.907ZM50.2892 36.4477C50.9232 36.0936 51.581 35.789 52.2613 35.5327L49.4405 28.0465C48.3943 28.4407 47.3749 28.9122 46.3883 29.4632L50.2892 36.4477ZM56.5925 34.5676C58.0604 34.439 59.6121 34.482 61.231 34.7025L62.3108 26.7757C60.1541 26.4819 58.0041 26.4132 55.894 26.5982L56.5925 34.5676ZM65.9362 35.793C67.4465 36.281 68.9834 36.9057 70.5305 37.6654L74.0566 30.4844C72.1872 29.5665 70.2944 28.794 68.3959 28.1805L65.9362 35.793ZM74.9181 40.1716C76.3064 41.0776 77.6846 42.0868 79.0401 43.1952L84.1042 37.0021C82.5344 35.7184 80.9257 34.5394 79.2905 33.4721L74.9181 40.1716ZM82.861 46.6492C84.061 47.8439 85.2295 49.1179 86.3565 50.4672L92.4964 45.3387C91.2139 43.8033 89.8803 42.3487 88.5054 40.9798L82.861 46.6492ZM89.5031 54.592C89.9949 55.2986 90.475 56.021 90.9426 56.7588L97.6998 52.4762C97.1706 51.6413 96.6268 50.8231 96.0695 50.0223L89.5031 54.592ZM90.9449 56.7625C91.5135 57.6574 92.0523 58.5569 92.5613 59.4588L99.5283 55.5268C98.9506 54.5032 98.3403 53.4845 97.6974 52.4725L90.9449 56.7625ZM95.3368 65.0643C96.1776 67.0301 96.8776 68.986 97.439 70.9119L105.119 68.6731C104.465 66.4298 103.656 64.1712 102.692 61.9183L95.3368 65.0643ZM98.7592 76.9081C99.0661 78.9977 99.1958 81.0114 99.1567 82.9224L107.155 83.0863C107.204 80.7011 107.041 78.243 106.674 75.7457L98.7592 76.9081ZM98.4507 88.7172C97.992 90.6509 97.3213 92.3871 96.4637 93.9044L103.428 97.8411C104.693 95.6033 105.621 93.1519 106.235 90.564L98.4507 88.7172ZM93.1362 97.975C92.4822 98.5296 91.7715 99.0286 91.0018 99.467L94.9606 106.419C96.1617 105.735 97.2791 104.951 98.3105 104.076L93.1362 97.975ZM90.9973 99.4695C90.371 99.8273 89.7195 100.135 89.0444 100.395L91.9136 107.862C92.961 107.46 93.9802 106.979 94.965 106.416L90.9973 99.4695ZM84.7342 101.374C83.2721 101.505 81.7223 101.465 80.1016 101.246L79.0313 109.174C81.1909 109.466 83.3425 109.531 85.4518 109.341L84.7342 101.374ZM75.3952 100.162C73.8844 99.676 72.3454 99.0539 70.795 98.297L67.2856 105.486C69.1567 106.4 71.0498 107.168 72.9471 107.778L75.3952 100.162ZM66.3981 95.8017C65.0064 94.8998 63.624 93.8951 62.2636 92.7918L57.2243 99.0051C58.7982 100.282 60.41 101.454 62.0473 102.515L66.3981 95.8017ZM58.4267 89.3534C57.2208 88.1638 56.046 86.8953 54.9122 85.5518L48.7984 90.7114C50.0878 92.2393 51.4279 93.6867 52.8086 95.0487L58.4267 89.3534ZM51.7441 81.4434C51.2486 80.7394 50.7646 80.0197 50.2932 79.2847L43.5592 83.6035C44.0926 84.4353 44.6407 85.2503 45.2021 86.048L51.7441 81.4434ZM50.2908 79.2809C49.7165 78.3876 49.1728 77.4894 48.6598 76.5885L41.708 80.5475C42.2922 81.5733 42.9101 82.5939 43.5616 83.6073L50.2908 79.2809ZM45.8679 70.9824C45.0245 69.0146 44.3251 67.0553 43.767 65.1249L36.0818 67.3469C36.7337 69.6019 37.545 71.8714 38.5148 74.134L45.8679 70.9824ZM42.4655 59.1143C42.1679 57.0209 42.0491 55.0013 42.0998 53.0827L34.1026 52.8711C34.0393 55.2656 34.1888 57.7333 34.5451 60.2401L42.4655 59.1143ZM42.8428 47.2676C43.3134 45.3283 43.9945 43.5818 44.8611 42.0511L37.8994 38.1097C36.6329 40.3466 35.6959 42.7954 35.0684 45.3808L42.8428 47.2676ZM48.2083 37.9334C48.8654 37.3692 49.5777 36.8614 50.3469 36.4148L46.3306 29.4961C45.1359 30.1896 44.0237 30.982 42.9966 31.8639L48.2083 37.9334ZM133.372 4.60684C134.248 4.42278 135.121 4.32228 135.989 4.30024L135.786 -3.69718C134.434 -3.66286 133.079 -3.50619 131.727 -3.2222L133.372 4.60684ZM141.243 5.10915C142.915 5.66378 144.592 6.50354 146.242 7.62762L150.747 1.01685C148.547 -0.482525 146.207 -1.67297 143.762 -2.4841L141.243 5.10915ZM150.696 11.4514C152.021 12.8436 153.29 14.4249 154.476 16.1808L161.105 11.7017C159.687 9.60313 158.143 7.67085 156.49 5.93488L150.696 11.4514ZM157.555 21.5211C158.442 23.3306 159.245 25.2557 159.949 27.2828L167.506 24.6577C166.699 22.3334 165.772 20.1086 164.739 18.0002L157.555 21.5211ZM161.674 33.3208C161.905 34.3347 162.112 35.3668 162.293 36.4156L170.176 35.0528C169.971 33.8663 169.737 32.6966 169.475 31.5454L161.674 33.3208ZM162.283 36.3561C162.42 37.2212 162.537 38.083 162.635 38.9407L170.583 38.0316C170.472 37.0622 170.34 36.0887 170.186 35.1123L162.283 36.3561ZM163.004 44.1297C163.053 45.8917 163.022 47.6247 162.916 49.3192L170.9 49.8181C171.021 47.8814 171.056 45.908 171.001 43.9082L163.004 44.1297ZM162.35 54.4519C162.073 56.1855 161.713 57.8596 161.279 59.463L169 61.5553C169.511 59.6702 169.929 57.7192 170.249 55.7159L162.35 54.4519ZM159.67 64.2642C159.02 65.8652 158.289 67.3576 157.487 68.729L164.393 72.7671C165.401 71.0435 166.299 69.2046 167.083 67.2724L159.67 64.2642ZM154.701 72.6805C153.639 73.9241 152.51 74.9884 151.328 75.8672L156.102 82.2864C157.806 81.0194 159.368 79.5344 160.785 77.8756L154.701 72.6805ZM147.45 78.0181C146.772 78.2767 146.077 78.4841 145.367 78.6385L147.066 86.4559C148.174 86.2152 149.252 85.8926 150.299 85.4938L147.45 78.0181ZM145.362 78.6396C144.491 78.8301 143.624 78.9364 142.764 78.9638L143.019 86.9598C144.369 86.9167 145.722 86.7499 147.071 86.4548L145.362 78.6396ZM137.548 78.181C135.889 77.632 134.225 76.7951 132.59 75.67L128.055 82.261C130.249 83.7704 132.588 84.9664 135.035 85.7761L137.548 78.181ZM128.183 71.8399C126.875 70.4454 125.625 68.8602 124.459 67.0988L117.789 71.5163C119.186 73.6257 120.711 75.5681 122.348 77.3128L128.183 71.8399ZM121.443 61.7475C120.578 59.9364 119.798 58.0094 119.117 55.98L111.532 58.524C112.313 60.8526 113.215 63.0817 114.224 65.1946L121.443 61.7475ZM117.462 49.9419C117.243 48.9287 117.048 47.8974 116.879 46.8493L108.981 48.1267C109.173 49.3126 109.394 50.4817 109.643 51.6325L117.462 49.9419ZM116.874 46.8237C116.73 45.9641 116.604 45.1075 116.498 44.2549L108.56 45.2433C108.68 46.2095 108.822 47.1795 108.986 48.1524L116.874 46.8237ZM116.083 39.0937C116.02 37.3401 116.037 35.6147 116.13 33.9271L108.142 33.4861C108.035 35.4191 108.016 37.3883 108.088 39.3833L116.083 39.0937ZM116.659 28.8131C116.925 27.0853 117.273 25.416 117.697 23.8164L109.964 21.7669C109.465 23.6499 109.059 25.5982 108.752 27.5982L116.659 28.8131ZM119.274 19.0246C119.913 17.4261 120.634 15.9347 121.425 14.5628L114.496 10.5645C113.501 12.288 112.616 14.1258 111.845 16.0561L119.274 19.0246ZM124.178 10.6056C125.229 9.35727 126.348 8.28739 127.518 7.40246L122.691 1.02253C121.006 2.29769 119.46 3.78893 118.059 5.45217L124.178 10.6056ZM131.362 5.22743C132.035 4.96444 132.724 4.753 133.427 4.59487L131.672 -3.21024C130.569 -2.96212 129.494 -2.63159 128.452 -2.22447L131.362 5.22743ZM3.33437 108.578C2.37241 109.527 1.50776 110.545 0.740571 111.624L7.26123 116.259C7.75984 115.558 8.32236 114.895 8.95126 114.275L3.33437 108.578ZM-2.68879 118.747C-3.40391 121.182 -3.76125 123.738 -3.79322 126.349L4.20618 126.447C4.23002 124.5 4.49554 122.675 4.98702 121.001L-2.68879 118.747ZM-3.05693 133.773C-2.57954 136.098 -1.8755 138.438 -0.958269 140.762L6.48301 137.825C5.72534 135.905 5.15838 134.009 4.77957 132.164L-3.05693 133.773ZM2.17768 147.236C3.33888 149.25 4.66261 151.234 6.14307 153.166L12.4936 148.301C11.2202 146.639 10.0911 144.945 9.10801 143.24L2.17768 147.236ZM10.7858 158.52C11.6017 159.355 12.45 160.176 13.3302 160.979L18.7237 155.071C17.9559 154.37 17.2174 153.655 16.5084 152.93L10.7858 158.52ZM13.3302 160.979C14.0562 161.642 14.7929 162.284 15.5391 162.904L20.6546 156.753C20.0028 156.211 19.3588 155.65 18.7237 155.071L13.3302 160.979ZM20.2134 166.436C21.854 167.558 23.5264 168.585 25.2192 169.515L29.0699 162.502C27.6074 161.699 26.157 160.809 24.7297 159.833L20.2134 166.436ZM30.5297 172.086C32.3854 172.867 34.2539 173.533 36.121 174.081L38.3726 166.404C36.8037 165.944 35.2195 165.38 33.6336 164.712L30.5297 172.086ZM41.9645 175.406C44.003 175.73 46.0278 175.906 48.0183 175.925L48.093 167.925C46.5217 167.91 44.8928 167.771 43.2224 167.505L41.9645 175.406ZM54.1939 175.446C56.3043 175.085 58.3509 174.517 60.2977 173.725L57.2848 166.314C55.9125 166.872 54.4283 167.29 52.8465 167.56L54.1939 175.446ZM65.9551 170.552C66.8287 169.901 67.6617 169.189 68.4489 168.416L62.8451 162.707C62.3188 163.223 61.761 163.7 61.1735 164.138L65.9551 170.552ZM68.4489 168.416C69.4112 167.472 70.279 166.462 71.0521 165.395L64.5728 160.702C64.063 161.406 63.4882 162.076 62.8451 162.707L68.4489 168.416ZM74.5689 158.302C75.321 155.857 75.7085 153.295 75.7662 150.677L67.7682 150.501C67.7253 152.445 67.4392 154.27 66.9226 155.95L74.5689 158.302ZM75.0885 143.212C74.6256 140.874 73.9338 138.52 73.0292 136.183L65.5684 139.07C66.3169 141.004 66.8738 142.912 67.2408 144.766L75.0885 143.212ZM69.9331 129.668C68.7864 127.64 67.4794 125.639 66.0194 123.687L59.6127 128.478C60.8749 130.166 61.9948 131.882 62.9693 133.605L69.9331 129.668ZM61.4435 118.263C60.6395 117.414 59.804 116.578 58.9376 115.759L53.4398 121.57C54.1999 122.289 54.9315 123.021 55.6341 123.763L61.4435 118.263ZM58.8398 115.669C58.1012 115.015 57.3517 114.382 56.5926 113.77L51.5703 119.997C52.2345 120.533 52.8907 121.087 53.5376 121.66L58.8398 115.669ZM51.8481 110.293C50.188 109.191 48.4961 108.183 46.784 107.271L43.0219 114.331C44.5057 115.122 45.9772 115.998 47.4252 116.959L51.8481 110.293ZM41.4258 104.753C39.5574 103.991 37.6766 103.34 35.7976 102.806L33.6124 110.502C35.1978 110.952 36.7987 111.505 38.4013 112.16L41.4258 104.753ZM29.9271 101.522C27.8814 101.209 25.8497 101.043 23.8525 101.032L23.8085 109.032C25.3928 109.041 27.035 109.173 28.7189 109.43L29.9271 101.522ZM17.6613 101.528C15.5457 101.892 13.4934 102.462 11.5402 103.254L14.5458 110.668C15.9294 110.107 17.4252 109.686 19.0191 109.412L17.6613 101.528ZM5.85895 106.427C4.98051 107.078 4.14256 107.79 3.35013 108.563L8.93551 114.29C9.46703 113.772 10.0303 113.293 10.6233 112.853L5.85895 106.427ZM218.307 26.2078C217.201 26.1623 216.102 26.1927 215.013 26.2951L215.762 34.2599C216.497 34.1908 217.236 34.1705 217.978 34.201L218.307 26.2078ZM208.666 27.7307C206.684 28.4466 204.776 29.3938 202.959 30.5363L207.216 37.3093C208.586 36.4485 209.98 35.7621 211.384 35.2549L208.666 27.7307ZM198.021 34.3041C196.542 35.6467 195.142 37.1279 193.829 38.7273L200.012 43.8038C201.093 42.4873 202.226 41.2917 203.399 40.2266L198.021 34.3041ZM190.319 43.6056C189.278 45.2581 188.313 46.9987 187.433 48.8148L194.632 52.3042C195.387 50.7465 196.209 49.2655 197.087 47.8713L190.319 43.6056ZM185.128 54.2679C184.464 56.0906 183.879 57.9712 183.38 59.9001L191.125 61.9044C191.56 60.2221 192.069 58.5867 192.645 57.007L185.128 54.2679ZM182.173 65.6572C182.017 66.6198 181.883 67.5916 181.77 68.5716L189.718 69.4858C189.816 68.6275 189.934 67.7767 190.071 66.9344L182.173 65.6572ZM181.757 68.7036C181.66 69.8922 181.597 71.0721 181.566 72.2411L189.563 72.4515C189.59 71.4299 189.646 70.3967 189.731 69.3538L181.757 68.7036ZM181.786 79.3341C182.004 81.7622 182.368 84.1238 182.87 86.3988L190.682 84.6755C190.256 82.742 189.942 80.7172 189.754 78.618L181.786 79.3341ZM184.92 93.3147C185.809 95.6583 186.866 97.8717 188.085 99.9209L194.961 95.833C193.996 94.2086 193.135 92.4169 192.4 90.4777L184.92 93.3147ZM192.568 105.928C194.36 107.837 196.361 109.484 198.554 110.801L202.671 103.941C201.164 103.037 199.732 101.871 198.401 100.452L192.568 105.928ZM205.909 113.728C207.198 114.005 208.518 114.177 209.865 114.236L210.219 106.244C209.319 106.204 208.444 106.09 207.595 105.907L205.909 113.728ZM209.865 114.236C210.967 114.285 212.062 114.258 213.147 114.159L212.42 106.192C211.69 106.259 210.956 106.277 210.219 106.244L209.865 114.236ZM219.477 112.74C221.454 112.028 223.357 111.084 225.168 109.942L220.901 103.174C219.544 104.03 218.161 104.711 216.767 105.213L219.477 112.74ZM230.082 106.172C231.551 104.828 232.94 103.344 234.24 101.74L228.025 96.703C226.96 98.0169 225.841 99.2089 224.682 100.27L230.082 106.172ZM237.702 96.8506C238.725 95.1955 239.67 93.4512 240.529 91.6301L233.293 88.2182C232.559 89.7746 231.758 91.2528 230.898 92.6435L237.702 96.8506ZM242.762 86.1688C243.401 84.3461 243.959 82.4646 244.429 80.5335L236.657 78.6383C236.247 80.3183 235.763 81.9498 235.212 83.5246L242.762 86.1688ZM245.547 74.7827C245.688 73.8224 245.807 72.8527 245.905 71.8746L237.944 71.0823C237.859 71.938 237.754 72.7856 237.632 73.6245L245.547 74.7827ZM245.905 71.8746C246.023 70.6886 246.106 69.5114 246.155 68.3448L238.162 68.0093C238.119 69.0229 238.047 70.0478 237.944 71.0823L245.905 71.8746ZM246.031 61.2593C245.842 58.8324 245.501 56.4719 245.019 54.1978L237.193 55.8551C237.601 57.7804 237.893 59.7953 238.056 61.8828L246.031 61.2593ZM243.027 47.2857C242.157 44.9439 241.117 42.7321 239.918 40.6833L233.013 44.7223C233.963 46.348 234.809 48.138 235.528 50.0724L243.027 47.2857ZM235.506 34.6681C233.737 32.7467 231.764 31.0839 229.605 29.7501L225.4 36.5561C226.884 37.4728 228.301 38.6531 229.62 40.0859L235.506 34.6681ZM222.294 26.7421C221.002 26.4517 219.678 26.2717 218.329 26.2087L217.956 34.2C218.838 34.2412 219.7 34.3586 220.539 34.5473L222.294 26.7421ZM250.924 163.471C250.433 162.339 249.886 161.254 249.286 160.213L242.355 164.209C242.805 164.989 243.215 165.802 243.582 166.65L250.924 163.471ZM245.011 154.389C243.416 152.639 241.661 151.06 239.795 149.622L234.912 155.959C236.457 157.149 237.857 158.416 239.098 159.778L245.011 154.389ZM234.077 145.796C232.156 144.672 230.163 143.637 228.132 142.67L224.693 149.893C226.561 150.782 228.347 151.712 230.035 152.7L234.077 145.796ZM222.106 140.01C220.108 139.185 218.088 138.396 216.078 137.628L213.222 145.1C215.199 145.856 217.147 146.617 219.053 147.405L222.106 140.01ZM210.103 135.367C208.108 134.612 206.15 133.86 204.236 133.089L201.247 140.509C203.238 141.312 205.258 142.086 207.269 142.848L210.103 135.367ZM198.551 130.656C197.616 130.225 196.703 129.787 195.814 129.337L192.205 136.477C193.191 136.976 194.193 137.457 195.207 137.923L198.551 130.656ZM195.773 129.317C194.991 128.933 194.203 128.528 193.408 128.103L189.638 135.159C190.506 135.622 191.375 136.07 192.246 136.497L195.773 129.317ZM188.719 125.434C187.186 124.514 185.637 123.545 184.07 122.539L179.749 129.272C181.364 130.308 182.984 131.322 184.603 132.294L188.719 125.434ZM179.435 119.508C177.887 118.482 176.352 117.456 174.78 116.41L170.351 123.073C171.895 124.099 173.467 125.15 175.015 126.176L179.435 119.508ZM170.067 113.309C168.474 112.276 166.868 111.255 165.253 110.263L161.068 117.081C162.613 118.03 164.161 119.014 165.714 120.021L170.067 113.309ZM160.291 107.344C158.585 106.388 156.863 105.479 155.128 104.637L151.634 111.833C153.206 112.597 154.789 113.432 156.382 114.324L160.291 107.344ZM149.708 102.26C147.816 101.525 145.901 100.888 143.967 100.376L141.919 108.109C143.53 108.536 145.161 109.076 146.813 109.718L149.708 102.26ZM137.902 99.2191C135.819 98.9837 133.715 98.9205 131.597 99.0641L132.139 107.046C133.74 106.937 135.36 106.983 137.004 107.168L137.902 99.2191ZM125.305 100.124C124.289 100.402 123.276 100.733 122.267 101.119L125.129 108.59C125.892 108.297 126.654 108.048 127.415 107.84L125.305 100.124ZM122.267 101.119C121.256 101.507 120.28 101.938 119.338 102.411L122.93 109.56C123.633 109.206 124.365 108.882 125.129 108.59L122.267 101.119ZM113.944 105.848C112.272 107.167 110.754 108.632 109.371 110.213L115.391 115.482C116.477 114.24 117.643 113.12 118.9 112.128L113.944 105.848ZM105.668 115.167C104.587 116.853 103.606 118.618 102.708 120.439L109.883 123.978C110.667 122.388 111.503 120.888 112.402 119.487L105.668 115.167ZM100.319 125.853C99.6094 127.644 98.9531 129.476 98.3377 131.33L105.93 133.85C106.507 132.113 107.112 130.427 107.757 128.799L100.319 125.853ZM96.637 136.822C96.1087 138.639 95.6046 140.47 95.1151 142.299L102.843 144.367C103.323 142.573 103.811 140.8 104.319 139.056L96.637 136.822ZM93.6864 147.742C93.215 149.557 92.7489 151.353 92.2742 153.134L100.004 155.194C100.487 153.384 100.96 151.562 101.429 149.754L93.6864 147.742ZM90.8045 158.45C90.29 160.228 89.7591 161.967 89.2005 163.655L96.7957 166.168C97.393 164.362 97.9539 162.524 98.4895 160.672L90.8045 158.45ZM87.3782 168.695C87.0479 169.525 86.7078 170.336 86.3565 171.127L93.6673 174.375C94.0649 173.48 94.4456 172.572 94.8116 171.652L87.3782 168.695ZM86.3342 171.178C85.9787 172.009 85.5971 172.846 85.1925 173.689L92.4047 177.151C92.8538 176.215 93.2839 175.273 93.6896 174.324L86.3342 171.178ZM82.5916 178.684C81.6779 180.33 80.712 181.987 79.715 183.666L86.593 187.751C87.6097 186.04 88.6193 184.309 89.5861 182.567L82.5916 178.684ZM76.7055 188.687C75.692 190.379 74.6747 192.094 73.6898 193.82L80.6382 197.785C81.581 196.133 82.5641 194.475 83.5685 192.798L76.7055 188.687ZM70.8013 199.15C69.8627 200.998 68.9847 202.875 68.2071 204.777L75.6126 207.804C76.2906 206.144 77.0721 204.469 77.9338 202.773L70.8013 199.15ZM66.1494 210.8C65.5813 212.909 65.1723 215.061 64.9786 217.254L72.9475 217.958C73.0948 216.291 73.4104 214.602 73.8739 212.881L66.1494 210.8ZM65.1048 223.979C65.2501 225.09 65.4602 226.203 65.7402 227.318L73.4994 225.37C73.2956 224.558 73.1428 223.749 73.0371 222.941L65.1048 223.979ZM65.7407 227.32C65.9938 228.326 66.2982 229.321 66.6493 230.302L74.1814 227.606C73.9143 226.86 73.6864 226.113 73.499 225.368L65.7407 227.32ZM69.2128 235.876C70.1982 237.62 71.3264 239.302 72.572 240.902L78.8842 235.987C77.8684 234.682 76.9611 233.327 76.1783 231.941L69.2128 235.876ZM76.5677 245.371C77.991 246.764 79.5105 248.068 81.1062 249.265L85.9069 242.866C84.5915 241.879 83.3373 240.802 82.163 239.653L76.5677 245.371ZM86.1358 252.535C87.9052 253.52 89.7416 254.377 91.6242 255.083L94.4341 247.593C92.9423 247.034 91.4665 246.346 90.0267 245.545L86.1358 252.535ZM97.5318 256.751C98.5529 256.945 99.5824 257.091 100.617 257.185L101.343 249.218C100.574 249.148 99.7999 249.039 99.023 248.892L97.5318 256.751ZM100.567 257.181C101.797 257.308 103.012 257.364 104.214 257.353L104.142 249.354C103.238 249.362 102.323 249.32 101.393 249.223L100.567 257.181ZM111.409 256.491C113.734 255.955 115.98 255.192 118.153 254.257L114.993 246.908C113.204 247.677 111.415 248.28 109.614 248.695L111.409 256.491ZM124.301 251.095C126.219 249.954 128.092 248.704 129.926 247.385L125.256 240.89C123.569 242.103 121.891 243.22 120.211 244.219L124.301 251.095ZM135.176 243.378C136.862 242.028 138.532 240.639 140.186 239.247L135.033 233.127C133.401 234.501 131.786 235.843 130.174 237.135L135.176 243.378ZM145.071 235.117C146.695 233.749 148.31 232.406 149.93 231.104L144.922 224.866C143.231 226.224 141.562 227.613 139.918 228.998L145.071 235.117ZM154.85 227.328C156.527 226.111 158.206 224.974 159.896 223.937L155.716 217.116C153.815 218.282 151.961 219.54 150.151 220.854L154.85 227.328ZM165.121 221.106C166.01 220.69 166.903 220.31 167.8 219.966L164.938 212.495C163.853 212.911 162.786 213.367 161.736 213.857L165.121 221.106ZM167.8 219.966C168.7 219.621 169.621 219.306 170.562 219.017L168.215 211.369C167.112 211.707 166.019 212.081 164.938 212.495L167.8 219.966ZM176.343 217.603C178.294 217.231 180.302 216.941 182.359 216.709L181.463 208.759C179.245 209.009 177.032 209.328 174.845 209.745L176.343 217.603ZM188.535 216.177C190.609 216.043 192.705 215.944 194.825 215.857L194.496 207.864C192.349 207.952 190.183 208.054 188.021 208.193L188.535 216.177ZM201.209 215.607C203.364 215.519 205.531 215.419 207.684 215.281L207.173 207.297C205.109 207.429 203.013 207.527 200.883 207.614L201.209 215.607ZM214.25 214.712C216.484 214.456 218.705 214.128 220.888 213.695L219.33 205.848C217.403 206.231 215.405 206.528 213.342 206.763L214.25 214.712ZM227.543 211.968C229.773 211.232 231.949 210.333 234.041 209.228L230.303 202.155C228.654 203.026 226.897 203.757 225.037 204.37L227.543 211.968ZM240.03 205.251C240.951 204.491 241.842 203.675 242.699 202.798L236.98 197.205C236.324 197.875 235.643 198.499 234.939 199.08L240.03 205.251ZM242.689 202.809C243.524 201.962 244.313 201.06 245.054 200.115L238.758 195.179C238.193 195.899 237.603 196.572 236.991 197.194L242.689 202.809ZM248.823 194.181C249.87 192.132 250.747 189.972 251.441 187.755L243.806 185.366C243.243 187.165 242.535 188.906 241.699 190.541L248.823 194.181ZM252.954 180.991C253.272 178.668 253.387 176.318 253.273 173.997L245.283 174.39C245.371 176.186 245.283 178.041 245.028 179.906L252.954 180.991ZM252.148 166.931C251.817 165.753 251.411 164.597 250.924 163.473L243.582 166.649C243.919 167.428 244.207 168.246 244.447 169.097L252.148 166.931Z" fill="#B5CFDD" mask="url(#path-1-inside-1_93_53)"/>
</svg>
