<svg width="185" height="235" viewBox="0 0 185 235" fill="none" xmlns="http://www.w3.org/2000/svg">
<mask id="path-1-inside-1_93_52" fill="white">
<path d="M101.996 2.52804C113.961 9.73221 115.704 30.7329 105.732 49.59C95.8346 68.3561 78.1907 77.9049 66.1512 70.7916C54.2023 63.7526 52.3686 42.6777 62.2497 23.7465C72.0564 4.90616 89.8817 -4.49424 101.996 2.52804ZM166.836 55.5481C176.215 66.1004 170.451 85.3632 154.115 98.8645C137.433 112.234 116.504 114.696 107.141 104.309C97.6883 93.848 103.543 74.6592 120.06 61.3063C136.562 47.7883 157.49 45.3261 166.836 55.5481ZM19.2716 4.68866C33.2536 8.68609 40.6918 28.2737 36.5112 48.3761C31.6541 68.3805 16.9521 81.5488 3.06081 77.6255C-10.8305 73.7022 -18.2523 54.2797 -13.7417 34.1437C-9.23104 14.0078 5.7267 0.896897 19.2716 4.68866ZM182.507 138.166C188.913 150.688 179.034 167.951 160.195 176.371C141.356 184.791 120.846 181.374 114.242 168.538C107.639 155.703 117.625 138.679 136.266 129.945C155.138 121.856 175.813 125.256 182.507 138.166ZM87.2 223.817C80.5727 232.662 66.3096 236.781 55.6104 233.95C33.2799 228.134 26.6959 196.953 8.64929 182.197C-9.39732 167.44 -41.9664 167.668 -51.3089 146.523C-56.7338 134.651 -53.3241 117.712 -44.114 108.854C-31.4017 96.639 -9.21982 102.637 8.49844 100.585C31.7703 98.218 60.545 81.5339 78.773 96.4389C96.9103 111.27 87.1145 142.866 88.5746 166.063C89.5686 185.389 98.6863 208.474 87.2 223.817Z"/>
</mask>
<path d="M105.732 49.59L103.964 48.655L103.963 48.657L105.732 49.59ZM66.1512 70.7916L67.1685 69.0697L67.1663 69.0684L66.1512 70.7916ZM62.2497 23.7465L64.0227 24.6719L64.0237 24.6699L62.2497 23.7465ZM154.115 98.8645L155.366 100.425L155.378 100.416L155.389 100.406L154.115 98.8645ZM107.141 104.309L108.627 102.97L108.625 102.968L107.141 104.309ZM120.06 61.3063L121.318 62.8617L121.328 62.8534L120.06 61.3063ZM19.2716 4.68866L19.8214 2.76567L19.8108 2.7627L19.2716 4.68866ZM36.5112 48.3761L38.4547 48.848L38.4626 48.8158L38.4693 48.7833L36.5112 48.3761ZM3.06081 77.6255L2.51722 79.5502L3.06081 77.6255ZM-13.7417 34.1437L-15.6933 33.7065L-13.7417 34.1437ZM182.507 138.166L184.288 137.255L184.283 137.245L182.507 138.166ZM160.195 176.371L161.011 178.197L160.195 176.371ZM114.242 168.538L116.021 167.623L114.242 168.538ZM136.266 129.945L135.478 128.107L135.448 128.12L135.418 128.134L136.266 129.945ZM87.2 223.817L88.8006 225.016L88.8011 225.015L87.2 223.817ZM55.6104 233.95L56.122 232.017L56.1146 232.015L55.6104 233.95ZM-51.3089 146.523L-49.4795 145.714L-49.4846 145.703L-49.4899 145.691L-51.3089 146.523ZM-44.114 108.854L-45.4998 107.412L-45.5004 107.413L-44.114 108.854ZM8.49844 100.585L8.29607 98.5952L8.28218 98.5967L8.26833 98.5983L8.49844 100.585ZM88.5746 166.063L90.572 165.96L90.5714 165.949L90.5707 165.937L88.5746 166.063ZM100.964 4.24145C101.779 4.73209 102.542 5.29617 103.252 5.92863L105.912 2.94081C105.021 2.14764 104.059 1.43573 103.027 0.814646L100.964 4.24145ZM106.842 10.4289C107.772 12.0634 108.521 13.9037 109.075 15.9158L112.932 14.8535C112.299 12.5562 111.429 10.4031 110.318 8.45062L106.842 10.4289ZM110.099 21.8783C110.255 23.8377 110.259 25.888 110.104 28.0022L114.094 28.2934C114.262 25.9885 114.26 23.7342 114.086 21.5605L110.099 21.8783ZM109.246 34.11C108.839 36.0849 108.302 38.0865 107.632 40.0946L111.427 41.3589C112.145 39.204 112.724 37.0502 113.164 34.9185L109.246 34.11ZM105.344 45.8659C104.913 46.7994 104.453 47.7298 103.964 48.655L107.5 50.5249C108.023 49.536 108.515 48.5411 108.976 47.5424L105.344 45.8659ZM103.963 48.657C103.49 49.5543 102.998 50.4294 102.491 51.2815L105.927 53.3294C106.47 52.4174 106.995 51.4816 107.501 50.523L103.963 48.657ZM99.1458 56.2598C97.9081 57.8975 96.6093 59.4163 95.2661 60.808L98.1443 63.5858C99.6022 62.0752 101.005 60.4337 102.337 58.6714L99.1458 56.2598ZM90.865 64.7954C89.2522 66.0609 87.6093 67.1474 85.9612 68.0456L87.8753 71.5579C89.7317 70.5462 91.5593 69.335 93.3342 67.9423L90.865 64.7954ZM80.6275 70.2875C78.7187 70.85 76.8491 71.1381 75.0529 71.1471L75.0729 75.1471C77.283 75.136 79.5267 74.7819 81.758 74.1245L80.6275 70.2875ZM69.6432 70.2384C68.7948 69.9307 67.9685 69.5424 67.1685 69.0697L65.1338 72.5135C66.1475 73.1124 67.1984 73.6066 68.2794 73.9987L69.6432 70.2384ZM67.1663 69.0684C66.3497 68.5873 65.5848 68.0307 64.8721 67.4036L62.23 70.4068C63.1276 71.1966 64.0967 71.9026 65.136 72.5148L67.1663 69.0684ZM61.2741 62.923C60.3434 61.2938 59.5919 59.4547 59.0343 57.4404L55.1793 58.5076C55.8157 60.8066 56.6879 62.9589 57.8009 64.9072L61.2741 62.923ZM58.0004 51.4797C57.8399 49.5208 57.8305 47.4698 57.9779 45.3541L53.9876 45.0761C53.827 47.3811 53.8358 49.6346 54.0138 51.8064L58.0004 51.4797ZM58.8131 39.2426C59.2123 37.2656 59.7402 35.2615 60.3992 33.2506L56.598 32.005C55.8911 34.1622 55.323 36.3178 54.8923 38.4508L58.8131 39.2426ZM62.6576 27.4679C63.0836 26.5322 63.5386 25.5995 64.0227 24.6719L60.4767 22.821C59.9592 23.8124 59.4728 24.8097 59.0171 25.8107L62.6576 27.4679ZM64.0237 24.6699C64.4933 23.7678 64.9817 22.8885 65.4872 22.0329L62.0433 19.9983C61.5013 20.9157 60.9781 21.8576 60.4756 22.823L64.0237 24.6699ZM68.8274 17.0364C70.0665 15.3942 71.3696 13.8731 72.7191 12.481L69.8471 9.69683C68.38 11.2102 66.97 12.8569 65.6344 14.6272L68.8274 17.0364ZM77.1441 8.49979C78.7654 7.23971 80.4191 6.15928 82.0792 5.2673L80.1861 1.74369C78.3162 2.74836 76.4757 3.95329 74.6895 5.34148L77.1441 8.49979ZM87.4458 3.04822C89.3633 2.49394 91.2434 2.21063 93.0512 2.20281L93.0339 -1.79715C90.8204 -1.78758 88.572 -1.44106 86.335 -0.794469L87.4458 3.04822ZM98.4968 3.10217C99.3532 3.40687 100.187 3.79114 100.993 4.25834L102.999 0.797748C101.98 0.207185 100.924 -0.280006 99.8375 -0.666427L98.4968 3.10217ZM165.342 56.8768C165.963 57.5761 166.508 58.3172 166.98 59.0954L170.401 57.0222C169.804 56.0371 169.114 55.1004 168.331 54.2195L165.342 56.8768ZM168.965 64.2544C169.323 66.0296 169.425 67.9295 169.268 69.92L173.255 70.2346C173.439 67.9119 173.325 65.6373 172.886 63.4627L168.965 64.2544ZM168.172 75.6307C167.632 77.4389 166.905 79.2791 165.998 81.125L169.587 82.8902C170.586 80.8588 171.396 78.8117 172.004 76.7762L168.172 75.6307ZM162.992 86.2751C161.902 87.8836 160.678 89.4736 159.324 91.0269L162.339 93.6554C163.796 91.9835 165.12 90.2654 166.304 88.5191L162.992 86.2751ZM155.119 95.3376C154.386 96.0116 153.626 96.674 152.841 97.3228L155.389 100.406C156.228 99.7127 157.041 99.0043 157.826 98.2827L155.119 95.3376ZM152.864 97.3038C152.046 97.9596 151.217 98.588 150.381 99.189L152.714 102.438C153.608 101.796 154.493 101.125 155.366 100.425L152.864 97.3038ZM145.139 102.54C143.292 103.582 141.427 104.496 139.565 105.279L141.115 108.966C143.123 108.123 145.126 107.14 147.105 106.023L145.139 102.54ZM133.729 107.309C131.68 107.874 129.665 108.271 127.711 108.502L128.18 112.475C130.347 112.219 132.56 111.78 134.791 111.166L133.729 107.309ZM121.655 108.667C119.57 108.518 117.617 108.143 115.832 107.548L114.568 111.343C116.703 112.054 118.988 112.486 121.369 112.657L121.655 108.667ZM110.721 104.895C109.965 104.319 109.265 103.678 108.627 102.97L105.656 105.648C106.464 106.545 107.348 107.355 108.299 108.078L110.721 104.895ZM108.625 102.968C108 102.276 107.451 101.542 106.978 100.772L103.57 102.867C104.172 103.846 104.868 104.776 105.658 105.65L108.625 102.968ZM104.984 95.6475C104.626 93.8821 104.529 91.9912 104.694 90.009L100.708 89.677C100.514 91.997 100.623 94.2698 101.064 96.4422L104.984 95.6475ZM105.82 84.3289C106.371 82.5329 107.11 80.7052 108.033 78.8725L104.46 77.0741C103.443 79.0932 102.618 81.1292 101.996 83.1547L105.82 84.3289ZM111.079 73.768C112.181 72.1767 113.418 70.6044 114.786 69.0694L111.799 66.4088C110.327 68.0617 108.988 69.7615 107.791 71.4902L111.079 73.768ZM119.025 64.8166C119.763 64.1526 120.528 63.5004 121.318 62.8617L118.803 59.751C117.959 60.4336 117.141 61.1313 116.35 61.8424L119.025 64.8166ZM121.328 62.8534C122.136 62.1915 122.955 61.5571 123.782 60.9505L121.418 57.7243C120.532 58.3733 119.657 59.0517 118.793 59.7592L121.328 62.8534ZM128.973 57.5668C130.804 56.5135 132.655 55.5902 134.505 54.7983L132.932 51.121C130.935 51.9756 128.944 52.9693 126.979 54.0995L128.973 57.5668ZM140.307 52.7405C142.345 52.1669 144.351 51.7598 146.298 51.5193L145.807 47.5495C143.648 47.8162 141.444 48.265 139.223 48.8902L140.307 52.7405ZM152.332 51.3208C154.413 51.4572 156.363 51.8182 158.146 52.3966L159.38 48.5919C157.25 47.9004 154.969 47.4851 152.594 47.3294L152.332 51.3208ZM163.261 54.9983C164.02 55.5663 164.722 56.1992 165.36 56.8977L168.312 54.1986C167.501 53.3106 166.612 52.5097 165.657 51.7952L163.261 54.9983ZM19.8108 2.7627C18.699 2.45148 17.5776 2.24231 16.4525 2.1312L16.0594 6.11183C16.9538 6.20016 17.8459 6.36644 18.7325 6.61461L19.8108 2.7627ZM9.69442 2.61206C7.56702 3.11876 5.48742 3.94838 3.49178 5.05744L5.43485 8.55379C7.14029 7.60601 8.87984 6.91797 10.6212 6.50321L9.69442 2.61206ZM-1.85381 8.86203C-3.42937 10.2495 -4.92385 11.8236 -6.31623 13.5618L-3.19432 16.0626C-1.93779 14.4939 -0.601902 13.0895 0.789746 11.864L-1.85381 8.86203ZM-9.94736 18.8675C-10.997 20.6662 -11.953 22.5811 -12.8001 24.5985L-9.11213 26.1472C-8.33087 24.2868 -7.45238 22.5283 -6.49259 20.8836L-9.94736 18.8675ZM-14.908 30.6163C-15.1962 31.6277 -15.4585 32.6582 -15.6933 33.7065L-11.7901 34.5809C-11.5718 33.6068 -11.3284 32.6503 -11.0611 31.7126L-14.908 30.6163ZM-15.6933 33.7065C-15.9359 34.7896 -16.1453 35.871 -16.3221 36.9484L-12.375 37.5963C-12.2106 36.5946 -12.0158 35.5888 -11.7901 34.5809L-15.6933 33.7065ZM-17.0069 43.5146C-17.1066 45.7637 -17.0652 47.9766 -16.8896 50.1328L-12.9028 49.8081C-13.0646 47.8215 -13.1032 45.7762 -13.0108 43.6918L-17.0069 43.5146ZM-15.9035 56.7007C-15.4058 58.9328 -14.7514 61.0725 -13.9481 63.0903L-10.2318 61.6108C-10.9521 59.8015 -11.5454 57.8662 -11.9994 55.8301L-15.9035 56.7007ZM-10.876 69.0995C-9.60538 71.0684 -8.14709 72.8428 -6.51124 74.371L-3.78067 71.448C-5.1547 70.1644 -6.4061 68.649 -7.51511 66.9306L-10.876 69.0995ZM-0.776316 78.3107C0.279308 78.8129 1.37817 79.2285 2.51722 79.5502L3.6044 75.7008C2.68568 75.4413 1.79776 75.1057 0.942012 74.6986L-0.776316 78.3107ZM2.51722 79.5502C3.63019 79.8645 4.74995 80.0803 5.8713 80.2011L6.29974 76.2241C5.40152 76.1274 4.50211 75.9543 3.6044 75.7008L2.51722 79.5502ZM12.6516 79.7983C14.8019 79.3151 16.8986 78.5055 18.9088 77.4141L17.0001 73.8988C15.2857 74.8297 13.5343 75.5002 11.7746 75.8956L12.6516 79.7983ZM24.3091 73.6378C25.9012 72.2557 27.4112 70.6852 28.8204 68.9501L25.7153 66.4284C24.4425 67.9957 23.0924 69.3971 21.687 70.6171L24.3091 73.6378ZM32.503 63.6542C33.571 61.859 34.5481 59.948 35.4209 57.9356L31.7511 56.3441C30.9441 58.205 30.0439 59.9642 29.0653 61.609L32.503 63.6542ZM37.6158 51.932C37.9207 50.9224 38.2008 49.894 38.4547 48.848L34.5677 47.9042C34.331 48.8791 34.0702 49.8367 33.7866 50.7756L37.6158 51.932ZM38.4693 48.7833C38.6961 47.6928 38.8899 46.6035 39.0515 45.5178L35.0951 44.929C34.9447 45.9394 34.7643 46.9534 34.5531 47.9689L38.4693 48.7833ZM39.6447 38.9133C39.7141 36.6571 39.6448 34.4357 39.4434 32.2703L35.4606 32.6407C35.6465 34.6395 35.711 36.6962 35.6466 38.7903L39.6447 38.9133ZM38.3859 25.6862C37.8668 23.4519 37.1941 21.3087 36.375 19.2866L32.6676 20.7883C33.4039 22.606 34.0151 24.5489 34.4897 26.5915L38.3859 25.6862ZM33.2645 13.2686C31.9838 11.2966 30.5182 9.5174 28.8765 7.98323L26.1454 10.9058C27.528 12.1979 28.7891 13.7214 29.9099 15.4472L33.2645 13.2686ZM23.1247 4.01979C22.066 3.51288 20.9639 3.09236 19.8214 2.7657L18.7218 6.61161C19.645 6.87554 20.5372 7.21575 21.3973 7.62757L23.1247 4.01979ZM184.283 137.245C183.736 136.19 183.105 135.194 182.398 134.257L179.205 136.666C179.779 137.427 180.29 138.234 180.732 139.087L184.283 137.245ZM177.371 129.407C175.541 128.102 173.506 127.019 171.319 126.156L169.85 129.876C171.764 130.632 173.508 131.565 175.049 132.664L177.371 129.407ZM164.804 124.302C162.659 123.901 160.425 123.667 158.132 123.602L158.018 127.601C160.115 127.66 162.14 127.873 164.068 128.234L164.804 124.302ZM151.469 123.873C149.307 124.106 147.116 124.479 144.918 124.995L145.833 128.889C147.873 128.41 149.901 128.065 151.897 127.85L151.469 123.873ZM138.563 126.888C137.531 127.262 136.502 127.668 135.478 128.107L137.054 131.784C138.008 131.375 138.966 130.997 139.926 130.649L138.563 126.888ZM135.418 128.134C134.443 128.591 133.491 129.07 132.562 129.569L134.456 133.092C135.32 132.628 136.206 132.182 137.115 131.757L135.418 128.134ZM127.114 132.913C125.315 134.168 123.636 135.505 122.089 136.908L124.776 139.871C126.193 138.585 127.739 137.354 129.402 136.193L127.114 132.913ZM117.629 141.569C116.209 143.295 114.969 145.086 113.931 146.921L117.412 148.891C118.329 147.272 119.434 145.67 120.718 144.111L117.629 141.569ZM111.302 152.964C110.632 155.151 110.255 157.367 110.208 159.57L114.207 159.655C114.245 157.851 114.555 156.002 115.127 154.137L111.302 152.964ZM111.16 166.295C111.501 167.37 111.935 168.425 112.464 169.453L116.021 167.623C115.594 166.794 115.246 165.947 114.973 165.086L111.16 166.295ZM112.464 169.453C113.006 170.506 113.631 171.5 114.333 172.435L117.532 170.034C116.963 169.276 116.458 168.472 116.021 167.623L112.464 169.453ZM119.333 177.273C121.156 178.573 123.184 179.65 125.366 180.504L126.825 176.78C124.92 176.034 123.186 175.108 121.656 174.017L119.333 177.273ZM131.866 182.322C134.003 182.708 136.23 182.925 138.517 182.969L138.595 178.97C136.509 178.93 134.494 178.732 132.578 178.386L131.866 182.322ZM145.15 182.632C147.298 182.375 149.475 181.977 151.659 181.432L150.692 177.551C148.667 178.055 146.655 178.424 144.676 178.66L145.15 182.632ZM157.959 179.457C158.979 179.07 159.998 178.65 161.011 178.197L159.379 174.545C158.436 174.967 157.489 175.357 156.54 175.717L157.959 179.457ZM161.011 178.197C161.992 177.759 162.95 177.297 163.884 176.814L162.045 173.261C161.179 173.709 160.29 174.138 159.379 174.545L161.011 178.197ZM169.363 173.553C171.172 172.322 172.859 171.005 174.413 169.619L171.751 166.633C170.33 167.9 168.781 169.111 167.113 170.246L169.363 173.553ZM178.892 165.006C180.319 163.296 181.565 161.519 182.612 159.699L179.145 157.705C178.22 159.312 177.109 160.9 175.821 162.443L178.892 165.006ZM185.28 153.705C185.97 151.528 186.37 149.326 186.444 147.14L182.447 147.004C182.386 148.793 182.057 150.635 181.467 152.495L185.28 153.705ZM185.574 140.421C185.241 139.34 184.814 138.283 184.288 137.255L180.727 139.077C181.146 139.896 181.486 140.738 181.75 141.597L185.574 140.421ZM88.8011 225.015C89.448 224.151 90.0344 223.264 90.5644 222.356L87.1099 220.34C86.6557 221.118 86.1535 221.878 85.599 222.618L88.8011 225.015ZM93.1383 216.562C93.7795 214.576 94.223 212.532 94.5102 210.451L90.5477 209.904C90.2882 211.785 89.8922 213.597 89.3317 215.333L93.1383 216.562ZM94.942 204.294C94.9627 202.284 94.8804 200.25 94.7266 198.205L90.7378 198.505C90.8849 200.46 90.9615 202.378 90.9422 204.252L94.942 204.294ZM94.1017 192.21C93.8483 190.24 93.5554 188.263 93.2493 186.296L89.2968 186.911C89.6003 188.861 89.8873 190.799 90.1344 192.721L94.1017 192.21ZM92.3176 180.441C92.0066 178.481 91.7075 176.542 91.4441 174.625L87.4813 175.17C87.7504 177.127 88.0546 179.099 88.367 181.068L92.3176 180.441ZM90.7755 168.838C90.6896 167.867 90.6207 166.907 90.572 165.96L86.5772 166.166C86.6288 167.168 86.7014 168.176 86.7911 169.19L90.7755 168.838ZM90.5707 165.937C90.5099 164.973 90.4691 163.99 90.4453 162.991L86.4464 163.086C86.4713 164.132 86.5142 165.167 86.5786 166.189L90.5707 165.937ZM90.4787 157.032C90.5378 155.068 90.6369 153.066 90.7569 151.034L86.7638 150.799C86.6425 152.853 86.5411 154.896 86.4805 156.911L90.4787 157.032ZM91.1504 145C91.2879 142.988 91.4269 140.958 91.5484 138.932L87.5555 138.692C87.4352 140.699 87.2974 142.712 87.1597 144.727L91.1504 145ZM91.8437 132.823C91.9132 130.757 91.945 128.699 91.9184 126.664L87.9187 126.717C87.9443 128.675 87.9139 130.669 87.8459 132.689L91.8437 132.823ZM91.6274 120.464C91.4464 118.351 91.1732 116.273 90.7808 114.25L86.854 115.012C87.2153 116.874 87.471 118.809 87.642 120.806L91.6274 120.464ZM89.129 108.109C88.4047 106.071 87.5069 104.115 86.4002 102.267L82.9683 104.322C83.9253 105.92 84.7146 107.633 85.36 109.449L89.129 108.109ZM82.4451 97.1006C81.698 96.3296 80.8969 95.5921 80.039 94.8906L77.507 97.9872C78.2456 98.5912 78.9329 99.2242 79.5726 99.8842L82.4451 97.1006ZM80.039 94.8906C79.1793 94.1876 78.2962 93.5487 77.3914 92.9705L75.2373 96.3409C76.0104 96.835 76.7673 97.3824 77.507 97.9872L80.039 94.8906ZM71.5266 90.1331C69.487 89.4239 67.3853 88.9471 65.2399 88.6602L64.7097 92.6249C66.6179 92.8801 68.4543 93.2997 70.2127 93.9112L71.5266 90.1331ZM58.8843 88.3222C56.8238 88.3608 54.7343 88.5279 52.6288 88.7915L53.1256 92.7606C55.116 92.5114 57.0628 92.357 58.9591 92.3215L58.8843 88.3222ZM46.5052 89.7942C44.5104 90.1884 42.5039 90.6422 40.4965 91.131L41.443 95.0175C43.4092 94.5386 45.3569 94.0985 47.2806 93.7183L46.5052 89.7942ZM34.5792 92.6523C32.6227 93.1751 30.6576 93.7134 28.7172 94.2386L29.7623 98.0997C31.7191 97.57 33.6629 97.0375 35.6118 96.5167L34.5792 92.6523ZM22.8809 95.7795C20.9134 96.2789 18.969 96.745 17.0528 97.156L17.8918 101.067C19.8702 100.643 21.8651 100.164 23.865 99.6565L22.8809 95.7795ZM11.2107 98.2293C10.2269 98.3747 9.25507 98.4977 8.29607 98.5952L8.70082 102.575C9.72575 102.47 10.7579 102.34 11.7955 102.186L11.2107 98.2293ZM8.26833 98.5983C7.40706 98.698 6.53167 98.7784 5.64339 98.8425L5.93106 102.832C6.87055 102.764 7.80384 102.679 8.72856 102.572L8.26833 98.5983ZM0.315075 99.053C-1.45674 99.0756 -3.25643 99.0605 -5.07771 99.0304L-5.14383 103.03C-3.30329 103.06 -1.46057 103.076 0.365935 103.053L0.315075 99.053ZM-10.5205 98.9194C-12.3482 98.8825 -14.1857 98.8533 -16.0133 98.855L-16.0094 102.855C-14.2243 102.853 -12.4201 102.882 -10.6012 102.919L-10.5205 98.9194ZM-21.5589 98.9814C-23.445 99.0748 -25.3154 99.2288 -27.1522 99.4718L-26.6276 103.437C-24.9211 103.211 -23.1624 103.066 -21.3611 102.976L-21.5589 98.9814ZM-32.7469 100.548C-34.6254 101.041 -36.4537 101.672 -38.2079 102.479L-36.5354 106.113C-35.0211 105.416 -33.417 104.859 -31.7329 104.418L-32.7469 100.548ZM-43.2518 105.49C-44.0278 106.079 -44.778 106.719 -45.4998 107.412L-42.7283 110.297C-42.1193 109.711 -41.4868 109.172 -40.8322 108.675L-43.2518 105.49ZM-45.5004 107.413C-46.3688 108.248 -47.1858 109.146 -47.9499 110.097L-44.8324 112.603C-44.1695 111.778 -43.467 111.007 -42.7277 110.296L-45.5004 107.413ZM-51.7987 116.159C-52.8462 118.267 -53.703 120.502 -54.3576 122.804L-50.5101 123.898C-49.9199 121.822 -49.1502 119.817 -48.2166 117.939L-51.7987 116.159ZM-55.6966 129.78C-55.94 132.157 -55.9711 134.551 -55.7734 136.904L-51.7874 136.569C-51.9634 134.475 -51.9368 132.329 -51.7175 130.188L-55.6966 129.78ZM-54.4212 143.959C-54.0601 145.121 -53.63 146.255 -53.128 147.354L-49.4899 145.691C-49.9181 144.754 -50.2884 143.779 -50.6016 142.772L-54.4212 143.959ZM-53.1383 147.331C-52.7003 148.322 -52.2144 149.271 -51.684 150.179L-48.2297 148.162C-48.6849 147.383 -49.1025 146.568 -49.4795 145.714L-53.1383 147.331ZM-47.892 155.284C-46.4663 156.827 -44.8936 158.218 -43.2098 159.485L-40.8044 156.289C-42.3212 155.148 -43.7106 153.915 -44.9538 152.57L-47.892 155.284ZM-38.0127 162.861C-36.2606 163.852 -34.4342 164.764 -32.5608 165.618L-30.9006 161.979C-32.6917 161.162 -34.4119 160.302 -36.0436 159.38L-38.0127 162.861ZM-26.9915 167.969C-25.1446 168.698 -23.2688 169.399 -21.3896 170.088L-20.0123 166.332C-21.8787 165.648 -23.72 164.96 -25.5233 164.248L-26.9915 167.969ZM-15.8077 172.122C-13.9509 172.803 -12.1088 173.491 -10.2941 174.205L-8.82994 170.482C-10.6864 169.752 -12.5615 169.052 -14.4308 168.367L-15.8077 172.122ZM-4.90456 176.463C-3.11778 177.268 -1.38544 178.117 0.275983 179.027L2.19879 175.52C0.429193 174.55 -1.39882 173.655 -3.26114 172.816L-4.90456 176.463ZM5.13207 182.037C5.90805 182.584 6.65917 183.153 7.38327 183.745L9.91532 180.648C9.11341 179.993 8.28659 179.367 7.43843 178.768L5.13207 182.037ZM7.38327 183.745C8.10867 184.338 8.81683 184.961 9.50966 185.611L12.2467 182.694C11.4918 181.986 10.7154 181.303 9.91532 180.648L7.38327 183.745ZM13.4446 189.756C14.6777 191.197 15.8647 192.717 17.0205 194.296L20.2487 191.934C19.045 190.289 17.7949 188.687 16.4838 187.155L13.4446 189.756ZM20.3446 199.098C21.4188 200.724 22.4731 202.382 23.5238 204.055L26.9115 201.928C25.8536 200.243 24.7808 198.556 23.682 196.893L20.3446 199.098ZM26.6693 209.088C27.731 210.781 28.803 212.468 29.8961 214.125L33.2345 211.921C32.166 210.302 31.1127 208.644 30.0577 206.963L26.6693 209.088ZM33.3337 219.086C34.5481 220.74 35.8069 222.341 37.1263 223.859L40.1453 221.235C38.9119 219.816 37.7216 218.304 36.5582 216.719L33.3337 219.086ZM41.4402 228.279C42.9991 229.681 44.6512 230.961 46.4169 232.081L48.5589 228.703C47.0048 227.717 45.5297 226.578 44.1158 225.305L41.4402 228.279ZM52.0725 234.92C53.0535 235.291 54.0641 235.614 55.1063 235.886L56.1146 232.015C55.2116 231.78 54.3368 231.5 53.4875 231.179L52.0725 234.92ZM55.0989 235.884C56.1017 236.149 57.1288 236.357 58.1718 236.509L58.7512 232.552C57.8498 232.42 56.9713 232.241 56.122 232.017L55.0989 235.884ZM64.3649 236.796C66.3996 236.7 68.4496 236.425 70.4655 235.982L69.607 232.075C67.8055 232.471 65.9795 232.716 64.1762 232.801L64.3649 236.796ZM76.3435 234.168C78.271 233.39 80.1235 232.447 81.8472 231.346L79.6933 227.975C78.1909 228.935 76.5602 229.767 74.8467 230.459L76.3435 234.168ZM86.7264 227.423C87.4721 226.665 88.1666 225.862 88.8006 225.016L85.5995 222.618C85.0782 223.313 84.5015 223.981 83.8747 224.618L86.7264 227.423ZM105.732 49.59L102.196 47.7201L102.194 47.724L105.732 49.59ZM66.1512 70.7916L68.1859 67.3478L68.1815 67.3452L66.1512 70.7916ZM62.2497 23.7465L65.7957 25.5973L65.7978 25.5933L62.2497 23.7465ZM154.115 98.8645L156.617 101.986L156.64 101.967L156.663 101.948L154.115 98.8645ZM107.141 104.309L110.113 101.631L110.109 101.627L107.141 104.309ZM120.06 61.3063L122.575 64.417L122.585 64.4088L122.595 64.4006L120.06 61.3063ZM19.2716 4.68866L20.3711 0.842745L20.3605 0.839713L20.3499 0.83674L19.2716 4.68866ZM36.5112 48.3761L40.3983 49.3199L40.4139 49.2555L40.4274 49.1905L36.5112 48.3761ZM3.06081 77.6255L1.97364 81.4749L3.06081 77.6255ZM-13.7417 34.1437L-17.645 33.2694L-13.7417 34.1437ZM182.507 138.166L186.068 136.344L186.063 136.334L186.058 136.324L182.507 138.166ZM160.195 176.371L161.827 180.023L160.195 176.371ZM114.242 168.538L117.799 166.708L114.242 168.538ZM136.266 129.945L134.69 126.269L134.629 126.295L134.569 126.323L136.266 129.945ZM87.2 223.817L90.4012 226.215L90.4021 226.214L87.2 223.817ZM55.6104 233.95L56.6335 230.083L56.6261 230.081L56.6187 230.079L55.6104 233.95ZM-51.3089 146.523L-47.6502 144.906L-47.6603 144.883L-47.6708 144.86L-51.3089 146.523ZM-44.114 108.854L-46.8855 105.97L-46.8868 105.971L-44.114 108.854ZM8.49844 100.585L8.09369 96.6055L8.06593 96.6083L8.03821 96.6115L8.49844 100.585ZM88.5746 166.063L92.5693 165.857L92.5682 165.835L92.5667 165.812L88.5746 166.063ZM99.9323 5.95484C100.639 6.38027 101.302 6.87044 101.922 7.42254L107.241 1.44689C106.26 0.573365 105.199 -0.212454 104.059 -0.898757L99.9323 5.95484ZM105.104 11.4181C105.943 12.8935 106.632 14.5775 107.147 16.447L114.86 14.3224C114.188 11.8824 113.258 9.57302 112.057 7.46148L105.104 11.4181ZM108.105 22.0372C108.253 23.8894 108.257 25.8378 108.11 27.8566L116.088 28.439C116.264 26.0387 116.262 23.6825 116.08 21.4016L108.105 22.0372ZM107.287 33.7058C106.896 35.6023 106.38 37.5278 105.735 39.4625L113.325 41.9911C114.067 39.7627 114.666 37.5328 115.122 35.3227L107.287 33.7058ZM103.528 45.0277C103.112 45.9285 102.668 46.8267 102.196 47.7201L109.268 51.4599C109.808 50.4391 110.316 49.4119 110.792 48.3806L103.528 45.0277ZM102.194 47.724C101.737 48.5907 101.262 49.4354 100.773 50.2575L107.644 54.3534C108.206 53.4114 108.748 52.4453 109.27 51.456L102.194 47.724ZM97.5502 55.0539C96.3596 56.6294 95.1128 58.0869 93.8271 59.4191L99.5833 64.9747C101.099 63.4047 102.554 61.7018 103.933 59.8773L97.5502 55.0539ZM89.6304 63.222C88.0987 64.4238 86.5481 65.448 85.0041 66.2895L88.8324 73.314C90.7929 72.2456 92.7129 70.972 94.5688 69.5158L89.6304 63.222ZM80.0623 68.3691C78.3146 68.884 76.6322 69.1392 75.0429 69.1471L75.0829 77.147C77.4999 77.1349 79.9307 76.7479 82.3233 76.0429L80.0623 68.3691ZM70.3252 68.3582C69.593 68.0927 68.879 67.7573 68.1859 67.3478L64.1165 74.2355C65.2369 74.8975 66.4002 75.4446 67.5974 75.8788L70.3252 68.3582ZM68.1815 67.3452C67.4762 66.9297 66.8134 66.4477 66.1932 65.902L60.9089 71.9084C61.899 72.7795 62.9703 73.5602 64.1209 74.2381L68.1815 67.3452ZM63.0107 61.931C62.1711 60.4612 61.48 58.7788 60.9618 56.9067L53.2518 59.0412C53.9276 61.4825 54.8601 63.7914 56.0644 65.8993L63.0107 61.931ZM59.9937 51.3164C59.8419 49.4638 59.8323 47.5141 59.9731 45.4931L51.9925 44.9371C51.8253 47.3368 51.8338 49.6916 52.0205 51.9698L59.9937 51.3164ZM60.7735 39.6385C61.157 37.7395 61.6647 35.8111 62.2997 33.8734L54.6975 31.3821C53.9666 33.6126 53.3783 35.844 52.9318 38.0549L60.7735 39.6385ZM64.4779 28.2965C64.889 27.3934 65.3282 26.493 65.7957 25.5973L58.7036 21.8956C58.1695 22.9189 57.6673 23.9485 57.1968 24.9821L64.4779 28.2965ZM65.7978 25.5933C66.2509 24.7229 66.7219 23.8749 67.2091 23.0502L60.3214 18.9809C59.7611 19.9293 59.2206 20.9025 58.7016 21.8996L65.7978 25.5933ZM70.4239 18.241C71.6147 16.6628 72.8644 15.2045 74.1551 13.873L68.411 8.30476C66.8851 9.87882 65.4218 11.5883 64.0378 13.4225L70.4239 18.241ZM78.3714 10.0789C79.9103 8.88292 81.4705 7.86475 83.0258 7.0291L79.2395 -0.0181169C77.2647 1.04289 75.3308 2.31008 73.4622 3.76232L78.3714 10.0789ZM88.0012 4.96956C89.759 4.46144 91.455 4.20973 93.0598 4.2028L93.0252 -3.79713C90.6088 -3.78669 88.1763 -3.40857 85.7797 -2.71581L88.0012 4.96956ZM97.8264 4.98648C98.568 5.25031 99.2899 5.58311 99.9895 5.98864L104.002 -0.932548C102.876 -1.58479 101.709 -2.12344 100.508 -2.55073L97.8264 4.98648ZM163.847 58.2055C164.387 58.8139 164.861 59.4573 165.27 60.1321L172.111 55.9856C171.451 54.897 170.69 53.8625 169.826 52.8908L163.847 58.2055ZM167.004 64.6502C167.323 66.2258 167.418 67.9383 167.274 69.7628L175.249 70.3919C175.445 67.9031 175.326 65.4411 174.846 63.0669L167.004 64.6502ZM166.256 75.058C165.749 76.7525 165.065 78.4893 164.203 80.2424L171.382 83.7728C172.426 81.6487 173.278 79.4982 173.921 77.3489L166.256 75.058ZM161.337 85.1531C160.293 86.6927 159.119 88.2187 157.816 89.7127L163.847 94.9696C165.356 93.2385 166.729 91.4563 167.959 89.6412L161.337 85.1531ZM153.766 93.8651C153.058 94.5153 152.325 95.1546 151.567 95.7812L156.663 101.948C157.529 101.232 158.368 100.501 159.179 99.7552L153.766 93.8651ZM151.614 95.7431C150.823 96.3768 150.022 96.984 149.214 97.5644L153.88 104.063C154.803 103.4 155.716 102.708 156.617 101.986L151.614 95.7431ZM144.156 100.798C142.375 101.804 140.58 102.683 138.79 103.435L141.889 110.81C143.97 109.936 146.043 108.919 148.089 107.765L144.156 100.798ZM133.197 105.381C131.24 105.92 129.324 106.298 127.476 106.516L128.414 114.461C130.688 114.192 133 113.733 135.322 113.094L133.197 105.381ZM121.798 106.672C119.86 106.534 118.074 106.187 116.464 105.651L113.936 113.241C116.246 114.01 118.697 114.471 121.226 114.652L121.798 106.672ZM111.933 103.304C111.273 102.802 110.665 102.244 110.113 101.631L104.17 106.987C105.064 107.978 106.04 108.872 107.087 109.67L111.933 103.304ZM110.109 101.627C109.566 101.026 109.091 100.39 108.681 99.7238L101.867 103.915C102.533 104.998 103.302 106.026 104.174 106.991L110.109 101.627ZM106.944 95.2502C106.627 93.6882 106.536 91.9882 106.687 90.175L98.7145 89.511C98.5072 92 98.6218 94.4637 99.1034 96.8396L106.944 95.2502ZM107.732 84.9159C108.248 83.2347 108.944 81.5113 109.819 79.7717L102.673 76.1749C101.61 78.2872 100.741 80.4274 100.084 82.5676L107.732 84.9159ZM112.723 74.9069C113.778 73.3844 114.964 71.8758 116.279 70.3997L110.305 65.0785C108.781 66.7903 107.392 68.5539 106.147 70.3512L112.723 74.9069ZM120.362 66.3037C121.074 65.6633 121.812 65.0338 122.575 64.417L117.546 58.1956C116.674 58.9002 115.83 59.6207 115.013 60.3552L120.362 66.3037ZM122.595 64.4006C123.376 63.7614 124.166 63.149 124.965 62.5636L120.235 56.1113C119.321 56.7814 118.417 57.4817 117.526 58.212L122.595 64.4006ZM129.97 59.3005C131.735 58.2856 133.515 57.3975 135.292 56.637L132.145 49.2823C130.075 50.1683 128.013 51.1972 125.982 52.3658L129.97 59.3005ZM140.849 54.6656C142.795 54.1178 144.702 53.7316 146.543 53.5042L145.562 45.5646C143.297 45.8444 140.993 46.3141 138.681 46.9651L140.849 54.6656ZM152.202 53.3165C154.135 53.4433 155.92 53.777 157.528 54.2989L159.998 46.6895C157.693 45.9416 155.247 45.499 152.725 45.3337L152.202 53.3165ZM162.063 56.5998C162.724 57.0945 163.332 57.6435 163.884 58.2473L169.788 52.849C168.89 51.8663 167.908 50.9814 166.855 50.1936L162.063 56.5998ZM20.3499 0.83674C19.1256 0.494002 17.8895 0.263381 16.6491 0.140879L15.8628 8.10215C16.6419 8.17909 17.4194 8.32392 18.1933 8.54057L20.3499 0.83674ZM9.23102 0.666483C6.91061 1.21916 4.66099 2.11957 2.52025 3.30926L6.40639 10.302C7.96672 9.43483 9.53626 8.81757 11.0846 8.44878L9.23102 0.666483ZM-3.17559 7.36106C-4.8431 8.8295 -6.41689 10.4884 -7.87719 12.3115L-1.63336 17.3129C-0.444761 15.8291 0.811832 14.5095 2.11153 13.3649L-3.17559 7.36106ZM-11.6747 17.8595C-12.7693 19.7352 -13.764 21.7283 -14.6441 23.8241L-7.26813 26.9216C-6.51982 25.1397 -5.68007 23.4593 -4.76521 21.8916L-11.6747 17.8595ZM-16.8314 30.0682C-17.1301 31.1163 -17.4018 32.1839 -17.645 33.2694L-9.83843 35.0181C-9.62854 34.0811 -9.39446 33.1616 -9.13772 32.2607L-16.8314 30.0682ZM-17.645 33.2694C-17.896 34.3901 -18.1127 35.5092 -18.2957 36.6245L-10.4014 37.9202C-10.2432 36.9564 -10.0558 35.9884 -9.83843 35.0181L-17.645 33.2694ZM-19.0049 43.4261C-19.1083 45.7574 -19.0655 48.0541 -18.883 50.2951L-10.9094 49.6458C-11.0643 47.744 -11.1015 45.7825 -11.0128 43.7804L-19.0049 43.4261ZM-17.8556 57.1359C-17.336 59.4661 -16.651 61.7081 -15.8063 63.83L-8.37362 60.8711C-9.05243 59.166 -9.6152 57.3329 -10.0473 55.3949L-17.8556 57.1359ZM-12.5564 70.184C-11.205 72.2781 -9.64329 74.1821 -7.87653 75.8325L-2.41539 69.9865C-3.6585 68.8252 -4.80646 67.4393 -5.83467 65.8461L-12.5564 70.184ZM-1.63548 80.1168C-0.479918 80.6665 0.724412 81.1221 1.97364 81.4749L4.14799 73.7761C3.33944 73.5477 2.55698 73.2521 1.80117 72.8926L-1.63548 80.1168ZM1.97364 81.4749C3.19423 81.8197 4.42416 82.0568 5.65709 82.1896L6.51395 74.2356C5.7273 74.1509 4.93806 73.9992 4.14799 73.7761L1.97364 81.4749ZM13.09 81.7496C15.4356 81.2226 17.705 80.3435 19.8631 79.1718L16.0458 72.1412C14.4792 72.9918 12.9005 73.5927 11.3361 73.9443L13.09 81.7496ZM25.6202 75.1481C27.3056 73.6851 28.8956 72.03 30.3729 70.2109L24.1628 65.1676C22.9581 66.651 21.6881 67.9677 20.3759 69.1068L25.6202 75.1481ZM34.2218 64.6768C35.3345 62.8065 36.3502 60.8195 37.2557 58.7314L29.9162 55.5484C29.142 57.3335 28.2804 59.0168 27.3465 60.5864L34.2218 64.6768ZM39.5304 52.5101C39.846 51.4653 40.1357 50.4014 40.3983 49.3199L32.6241 47.4323C32.3961 48.3717 32.1449 49.2938 31.872 50.1974L39.5304 52.5101ZM40.4274 49.1905C40.662 48.0625 40.8625 46.9356 41.0297 45.8122L33.1168 44.6347C32.9721 45.6073 32.7984 46.5837 32.595 47.5617L40.4274 49.1905ZM41.6437 38.9747C41.7156 36.6376 41.6439 34.3337 41.4348 32.0851L33.4692 32.8259C33.6473 34.7414 33.7094 36.7157 33.6475 38.7289L41.6437 38.9747ZM40.334 25.2336C39.7926 22.9033 39.0892 20.66 38.2287 18.5357L30.8139 21.5392C31.5088 23.2547 32.0893 25.0975 32.5416 27.0442L40.334 25.2336ZM34.9418 12.1792C33.5812 10.0842 32.0132 8.17717 30.242 6.52197L24.7798 12.367C26.033 13.5381 27.1917 14.9339 28.2326 16.5366L34.9418 12.1792ZM23.9884 2.21591C22.8304 1.66144 21.6234 1.20077 20.3711 0.842745L18.1721 8.53456C18.9855 8.76712 19.7728 9.06719 20.5336 9.43145L23.9884 2.21591ZM186.058 136.324C185.459 135.168 184.767 134.077 183.994 133.052L177.608 137.871C178.116 138.544 178.567 139.256 178.956 140.007L186.058 136.324ZM178.532 127.778C176.558 126.371 174.377 125.213 172.054 124.295L169.116 131.736C170.893 132.438 172.491 133.297 173.888 134.292L178.532 127.778ZM165.171 122.336C162.918 121.915 160.58 121.671 158.189 121.603L157.962 129.6C159.959 129.656 161.881 129.859 163.7 130.2L165.171 122.336ZM151.255 121.885C149.01 122.126 146.738 122.514 144.461 123.048L146.29 130.836C148.251 130.376 150.198 130.045 152.111 129.839L151.255 121.885ZM137.882 125.008C136.814 125.395 135.749 125.815 134.69 126.269L137.842 133.622C138.76 133.228 139.683 132.864 140.607 132.529L137.882 125.008ZM134.569 126.323C133.562 126.795 132.576 127.291 131.615 127.807L135.403 134.854C136.234 134.407 137.088 133.978 137.963 133.568L134.569 126.323ZM125.969 131.272C124.103 132.574 122.357 133.964 120.745 135.426L126.119 141.352C127.472 140.126 128.951 138.947 130.547 137.833L125.969 131.272ZM116.085 140.298C114.596 142.107 113.29 143.994 112.19 145.936L119.153 149.876C120.009 148.364 121.047 146.858 122.262 145.383L116.085 140.298ZM109.39 152.378C108.67 154.726 108.26 157.124 108.209 159.528L116.207 159.697C116.241 158.094 116.516 156.427 117.039 154.723L109.39 152.378ZM109.254 166.9C109.629 168.082 110.105 169.24 110.686 170.368L117.799 166.708C117.424 165.978 117.118 165.235 116.879 164.481L109.254 166.9ZM110.686 170.368C111.279 171.523 111.965 172.612 112.733 173.636L119.131 168.833C118.629 168.164 118.184 167.455 117.799 166.708L110.686 170.368ZM118.172 178.902C120.14 180.306 122.316 181.458 124.637 182.367L127.554 174.917C125.788 174.226 124.202 173.376 122.817 172.388L118.172 178.902ZM131.51 184.29C133.757 184.697 136.091 184.923 138.478 184.969L138.633 176.971C136.648 176.932 134.74 176.744 132.934 176.418L131.51 184.29ZM145.386 184.617C147.619 184.351 149.878 183.937 152.143 183.373L150.208 175.61C148.264 176.095 146.334 176.448 144.439 176.674L145.386 184.617ZM158.668 181.327C159.725 180.926 160.779 180.492 161.827 180.023L158.563 172.719C157.655 173.125 156.744 173.501 155.83 173.847L158.668 181.327ZM161.827 180.023C162.843 179.569 163.835 179.091 164.803 178.59L161.126 171.485C160.294 171.915 159.44 172.327 158.563 172.719L161.827 180.023ZM170.488 175.206C172.368 173.927 174.123 172.557 175.744 171.111L170.42 165.14C169.066 166.348 167.586 167.505 165.988 168.592L170.488 175.206ZM180.428 166.288C181.925 164.494 183.238 162.623 184.346 160.697L177.412 156.707C176.548 158.208 175.504 159.702 174.286 161.161L180.428 166.288ZM187.186 154.31C187.927 151.975 188.362 149.592 188.443 147.208L180.448 146.936C180.394 148.527 180.101 150.188 179.561 151.89L187.186 154.31ZM187.485 139.833C187.119 138.642 186.647 137.476 186.068 136.344L178.946 139.988C179.312 140.703 179.609 141.436 179.839 142.185L187.485 139.833ZM90.4021 226.214C91.0952 225.288 91.7237 224.337 92.2917 223.364L85.3826 219.331C84.9664 220.044 84.5062 220.741 83.998 221.42L90.4021 226.214ZM95.0416 217.176C95.7231 215.065 96.1904 212.906 96.4914 210.724L88.5665 209.631C88.3209 211.411 87.9485 213.108 87.4284 214.719L95.0416 217.176ZM96.9419 204.314C96.9633 202.237 96.8781 200.144 96.7209 198.055L88.7435 198.655C88.8872 200.565 88.9609 202.425 88.9423 204.232L96.9419 204.314ZM96.0854 191.955C95.8288 189.96 95.5329 187.965 95.2255 185.989L87.3206 187.219C87.6227 189.16 87.9068 191.079 88.1507 192.976L96.0854 191.955ZM94.2929 180.128C93.9825 178.172 93.686 176.249 93.4254 174.353L85.5 175.442C85.7719 177.42 86.0786 179.408 86.3918 181.382L94.2929 180.128ZM92.7677 168.661C92.6838 167.712 92.6166 166.777 92.5693 165.857L84.5799 166.268C84.6328 167.298 84.7073 168.331 84.7988 169.366L92.7677 168.661ZM92.5667 165.812C92.5078 164.876 92.468 163.919 92.4447 162.944L84.447 163.134C84.4724 164.202 84.5164 165.264 84.5825 166.314L92.5667 165.812ZM92.4778 157.092C92.5361 155.154 92.6341 153.172 92.7534 151.152L84.7673 150.681C84.6453 152.747 84.5428 154.811 84.4814 156.851L92.4778 157.092ZM93.1458 145.136C93.2831 143.126 93.4227 141.088 93.5448 139.051L85.5591 138.573C85.4394 140.57 85.3022 142.574 85.1644 144.591L93.1458 145.136ZM93.8425 132.89C93.9129 130.8 93.9453 128.71 93.9182 126.638L85.9189 126.743C85.944 128.664 85.9142 130.626 85.8471 132.621L93.8425 132.89ZM93.6201 120.293C93.4341 118.121 93.1522 115.972 92.7442 113.869L84.8906 115.393C85.2363 117.175 85.4834 119.039 85.6493 120.976L93.6201 120.293ZM91.0135 107.439C90.2497 105.29 89.2977 103.213 88.1161 101.239L81.2524 105.349C82.1346 106.822 82.8695 108.414 83.4755 110.118L91.0135 107.439ZM83.8814 95.7088C83.0805 94.8823 82.2226 94.0926 81.305 93.3423L76.2409 99.5354C76.92 100.091 77.5504 100.671 78.1363 101.276L83.8814 95.7088ZM81.305 93.3423C80.3852 92.5902 79.4391 91.9056 78.4685 91.2853L74.1603 98.0261C74.8675 98.4781 75.5614 98.9798 76.2409 99.5354L81.305 93.3423ZM72.1835 88.2441C70.0034 87.486 67.769 86.9806 65.505 86.6779L64.4446 94.6073C66.2342 94.8466 67.9378 95.2376 69.5558 95.8002L72.1835 88.2441ZM58.847 86.3226C56.7044 86.3627 54.5435 86.5362 52.3803 86.807L53.3741 94.7451C55.3068 94.5031 57.1822 94.3551 58.9965 94.3212L58.847 86.3226ZM46.1175 87.8321C44.0871 88.2333 42.0513 88.694 40.0233 89.1878L41.9162 96.9607C43.8618 96.4869 45.7801 96.0535 47.6683 95.6804L46.1175 87.8321ZM34.0628 90.7201C32.1026 91.2439 30.1269 91.7851 28.1946 92.3081L30.2849 100.03C32.2499 99.4983 34.183 98.9687 36.1281 98.4489L34.0628 90.7201ZM22.3888 93.841C20.4376 94.3363 18.5184 94.7962 16.6333 95.2005L18.3112 103.023C20.3208 102.592 22.3409 102.107 24.3571 101.595L22.3888 93.841ZM10.9183 96.2508C9.96143 96.3922 9.01973 96.5113 8.09369 96.6055L8.9032 104.564C9.96109 104.457 11.0233 104.322 12.0879 104.165L10.9183 96.2508ZM8.03821 96.6115C7.20866 96.7076 6.36222 96.7855 5.49954 96.8477L6.0749 104.827C7.04 104.757 8.00223 104.669 8.95868 104.558L8.03821 96.6115ZM0.289643 97.0532C-1.45481 97.0754 -3.233 97.0607 -5.04465 97.0307L-5.17689 105.03C-3.32672 105.06 -1.4625 105.076 0.391367 105.053L0.289643 97.0532ZM-10.4802 96.9198C-12.3123 96.8828 -14.1663 96.8532 -16.0152 96.855L-16.0075 104.855C-14.2437 104.853 -12.456 104.882 -10.6416 104.918L-10.4802 96.9198ZM-21.6578 96.9838C-23.5862 97.0793 -25.5125 97.2374 -27.4145 97.4891L-26.3652 105.42C-24.724 105.203 -23.0212 105.061 -21.2621 104.974L-21.6578 96.9838ZM-33.2539 98.6138C-35.2297 99.1316 -37.17 99.7998 -39.0441 100.662L-35.6992 107.93C-34.3048 107.288 -32.8128 106.768 -31.2259 106.352L-33.2539 98.6138ZM-44.4616 103.897C-45.2984 104.533 -46.1074 105.222 -46.8855 105.97L-41.3425 111.739C-40.7899 111.208 -40.2162 110.719 -39.6224 110.267L-44.4616 103.897ZM-46.8868 105.971C-47.8198 106.869 -48.694 107.83 -49.5087 108.844L-43.2736 113.856C-42.6613 113.094 -42.0161 112.387 -41.3413 111.738L-46.8868 105.971ZM-53.5897 115.269C-54.6942 117.491 -55.5946 119.842 -56.2813 122.257L-48.5864 124.445C-48.0283 122.482 -47.3022 120.593 -46.4256 118.829L-53.5897 115.269ZM-57.6862 129.577C-57.9416 132.07 -57.975 134.589 -57.7663 137.071L-49.7944 136.401C-49.9596 134.437 -49.9352 132.416 -49.7279 130.392L-57.6862 129.577ZM-56.331 144.553C-55.9459 145.792 -55.486 147.006 -54.9471 148.185L-47.6708 144.86C-48.0621 144.004 -48.4026 143.108 -48.6919 142.178L-56.331 144.553ZM-54.9677 148.139C-54.4992 149.2 -53.9791 150.215 -53.4112 151.188L-46.5025 147.154C-46.9202 146.439 -47.3036 145.69 -47.6502 144.906L-54.9677 148.139ZM-49.3611 156.641C-47.8442 158.283 -46.1799 159.753 -44.4126 161.083L-39.6016 154.691C-41.035 153.612 -42.3328 152.459 -43.4847 151.212L-49.3611 156.641ZM-38.9973 164.602C-37.185 165.627 -35.3054 166.565 -33.3909 167.438L-30.0706 160.16C-31.8205 159.361 -33.4875 158.527 -35.059 157.639L-38.9973 164.602ZM-27.7256 169.83C-25.8569 170.567 -23.9639 171.274 -22.0783 171.966L-19.3236 164.455C-21.1837 163.773 -23.0077 163.091 -24.7892 162.388L-27.7256 169.83ZM-16.4962 174C-14.6455 174.679 -12.8199 175.36 -11.0262 176.066L-8.09785 168.621C-9.97524 167.883 -11.8668 167.177 -13.7424 166.489L-16.4962 174ZM-5.72626 178.286C-3.97726 179.074 -2.29275 179.9 -0.685425 180.781L3.16019 173.766C1.3365 172.766 -0.539338 171.849 -2.43943 170.993L-5.72626 178.286ZM3.97891 183.671C4.71878 184.193 5.43205 184.733 6.11724 185.293L11.1813 179.1C10.3405 178.412 9.47587 177.758 8.5916 177.134L3.97891 183.671ZM6.11724 185.293C6.80529 185.856 7.47932 186.448 8.14112 187.069L13.6153 181.236C12.8294 180.498 12.0188 179.785 11.1813 179.1L6.11724 185.293ZM11.925 191.056C13.119 192.451 14.2745 193.93 15.4064 195.477L21.8628 190.754C20.6351 189.075 19.3535 187.433 18.0034 185.855L11.925 191.056ZM18.6759 200.2C19.7379 201.808 20.7829 203.451 21.8299 205.119L28.6053 200.865C27.5439 199.174 26.4617 197.472 25.3507 195.791L18.6759 200.2ZM24.9751 210.151C26.0401 211.849 27.1214 213.551 28.227 215.226L34.9036 210.819C33.8475 209.219 32.8035 207.576 31.7519 205.9L24.9751 210.151ZM31.7215 220.269C32.9614 221.958 34.2545 223.603 35.6168 225.171L41.6549 219.923C40.4644 218.553 39.3083 217.085 38.1705 215.535L31.7215 220.269ZM40.1024 229.765C41.7339 231.233 43.4745 232.583 45.3459 233.77L49.6299 227.014C48.1815 226.095 46.795 225.026 45.4536 223.818L40.1024 229.765ZM51.365 236.791C52.4119 237.187 53.4903 237.531 54.6022 237.821L56.6187 230.079C55.7853 229.862 54.9784 229.604 54.1951 229.308L51.365 236.791ZM54.5874 237.817C55.667 238.103 56.7683 238.325 57.8822 238.488L59.0409 230.573C58.2103 230.451 57.4061 230.288 56.6335 230.083L54.5874 237.817ZM64.4593 238.794C66.6096 238.692 68.7716 238.402 70.8948 237.935L69.1777 230.122C67.4834 230.494 65.7694 230.723 64.0818 230.803L64.4593 238.794ZM77.0918 236.023C79.1264 235.202 81.0898 234.203 82.9242 233.031L78.6163 226.29C77.2246 227.179 75.7048 227.956 74.0984 228.604L77.0918 236.023ZM88.1523 228.825C88.9574 228.007 89.7108 227.137 90.4012 226.215L83.9989 221.418C83.534 222.039 83.0162 222.639 82.4489 223.215L88.1523 228.825Z" fill="#C4630A" mask="url(#path-1-inside-1_93_52)"/>
</svg>
