<svg width="36" height="37" viewBox="0 0 36 37" fill="none" xmlns="http://www.w3.org/2000/svg">
<path fill-rule="evenodd" clip-rule="evenodd" d="M0.818247 8.52068C0.601342 8.30371 0.479492 8.00948 0.479492 7.70268C0.479492 7.39589 0.601342 7.10165 0.818247 6.88468L7.36425 0.33868C7.47173 0.231259 7.59933 0.146061 7.73974 0.0879498C7.88015 0.0298389 8.03064 -4.63753e-05 8.1826 5.40157e-08C8.33456 4.64833e-05 8.48503 0.030024 8.62541 0.0882206C8.76579 0.146417 8.89333 0.231694 9.00075 0.339181C9.10817 0.446667 9.19337 0.57426 9.25148 0.714674C9.30959 0.855087 9.33947 1.00557 9.33943 1.15753C9.33938 1.3095 9.3094 1.45996 9.25121 1.60034C9.19301 1.74072 9.10773 1.86826 9.00025 1.97568L8.18225 2.79268L12.2722 6.88268L15.5452 3.61068C15.7622 3.3936 16.0565 3.27159 16.3634 3.2715C16.5154 3.27145 16.6658 3.30134 16.8063 3.35945C16.9467 3.41756 17.0743 3.50276 17.1817 3.61018C17.2892 3.7176 17.3745 3.84514 17.4327 3.98552C17.4909 4.1259 17.5209 4.27636 17.5209 4.42833C17.521 4.58029 17.4911 4.73077 17.433 4.87119C17.3749 5.0116 17.2897 5.13919 17.1822 5.24668L15.5452 6.88368L29.4552 20.7937C30.2513 21.5899 30.7978 22.601 31.0279 23.7031C31.2579 24.8052 31.1614 25.9506 30.7502 26.9987L31.9092 28.1577C32.5142 28.7627 32.7142 29.6207 32.5092 30.3927L35.1822 33.0657C35.2897 33.1732 35.375 33.3008 35.4332 33.4412C35.4913 33.5817 35.5213 33.7322 35.5213 33.8842C35.5213 34.0362 35.4913 34.1867 35.4332 34.3271C35.375 34.4676 35.2897 34.5952 35.1822 34.7027C35.0748 34.8102 34.9472 34.8954 34.8067 34.9536C34.6663 35.0118 34.5158 35.0417 34.3637 35.0417C34.2117 35.0417 34.0612 35.0118 33.9208 34.9536C33.7803 34.8954 33.6527 34.8102 33.5452 34.7027L30.8722 32.0297C30.4797 32.1349 30.0663 32.1349 29.6738 32.0296C29.2812 31.9242 28.9234 31.7173 28.6362 31.4297L27.4782 30.2717C26.43 30.6827 25.2847 30.779 24.1825 30.5488C23.0804 30.3186 22.0693 29.7719 21.2732 28.9757L19.1332 26.8357L25.9002 20.0677L14.1302 8.29768L8.77725 13.6517L11.1472 16.0207H8.31825L7.36325 15.0657L5.72725 16.7017C5.62051 16.8122 5.49285 16.9003 5.35169 16.9609C5.21053 17.0216 5.05872 17.0535 4.9051 17.0548C4.75148 17.0561 4.59914 17.0269 4.45695 16.9687C4.31477 16.9105 4.18559 16.8246 4.07696 16.716C3.96834 16.6073 3.88243 16.4782 3.82425 16.336C3.76608 16.1938 3.7368 16.0414 3.73813 15.8878C3.73946 15.7342 3.77137 15.5824 3.832 15.4412C3.89262 15.3001 3.98075 15.1724 4.09125 15.0657L7.36425 11.7927L3.27425 7.70268L2.45425 8.52068C2.23728 8.73759 1.94304 8.85944 1.63625 8.85944C1.32945 8.85944 1.03522 8.73759 0.818247 8.52068V8.52068ZM6.76825 4.20768L10.8582 8.29768L8.77825 10.3777L4.68825 6.28768L6.76825 4.20768V4.20768ZM22.6872 27.5607L22.1832 27.0567L27.5362 21.7027L28.0402 22.2067C28.5616 22.7278 28.9195 23.3897 29.0701 24.1112C29.2208 24.8327 29.1575 25.5825 28.8882 26.2687L26.7482 28.4087C26.0623 28.6779 25.3126 28.7411 24.5913 28.5904C23.8699 28.4398 23.2082 28.0819 22.6872 27.5607V27.5607ZM29.4552 28.9747C29.3811 29.049 29.3048 29.121 29.2262 29.1907L30.0502 30.0147C30.0794 30.0439 30.114 30.0671 30.1521 30.0829C30.1903 30.0988 30.2311 30.1069 30.2724 30.107C30.3137 30.107 30.3546 30.099 30.3927 30.0832C30.4309 30.0674 30.4655 30.0443 30.4947 30.0152C30.524 29.986 30.5472 29.9514 30.563 29.9133C30.5788 29.8752 30.587 29.8343 30.5871 29.793C30.5871 29.7518 30.579 29.7109 30.5633 29.6727C30.5475 29.6346 30.5244 29.5999 30.4952 29.5707L29.6712 28.7467C29.6013 28.8246 29.5293 28.9006 29.4552 28.9747Z" fill="white"/>
<path d="M10 22.0208C10.2652 22.0208 10.5196 22.1261 10.7071 22.3136C10.8946 22.5012 11 22.7555 11 23.0208V25.0208H13C13.2652 25.0208 13.5196 25.1261 13.7071 25.3136C13.8946 25.5012 14 25.7555 14 26.0208C14 26.286 13.8946 26.5403 13.7071 26.7279C13.5196 26.9154 13.2652 27.0208 13 27.0208H11V29.0208C11 29.286 10.8946 29.5403 10.7071 29.7279C10.5196 29.9154 10.2652 30.0208 10 30.0208C9.73478 30.0208 9.48043 29.9154 9.29289 29.7279C9.10536 29.5403 9 29.286 9 29.0208V27.0208H7C6.73478 27.0208 6.48043 26.9154 6.29289 26.7279C6.10536 26.5403 6 26.286 6 26.0208C6 25.7555 6.10536 25.5012 6.29289 25.3136C6.48043 25.1261 6.73478 25.0208 7 25.0208H9V23.0208C9 22.7555 9.10536 22.5012 9.29289 22.3136C9.48043 22.1261 9.73478 22.0208 10 22.0208V22.0208Z" fill="white"/>
<path fill-rule="evenodd" clip-rule="evenodd" d="M2.66004 31.7098C4.37956 33.8871 6.79391 35.4088 9.50004 36.0208C12.2061 35.4091 14.6204 33.8878 16.34 31.7108C18.0706 29.5207 19.0082 26.809 19 24.0178V20.4208C19 19.7838 18.75 19.1738 18.305 18.7238C18.0855 18.5012 17.8239 18.3244 17.5356 18.2038C17.2472 18.0831 16.9377 18.0209 16.625 18.0208H2.37604C1.74604 18.0208 1.14204 18.2738 0.696045 18.7238C0.249719 19.1758 -0.000368853 19.7855 4.45404e-05 20.4208V24.0188C-0.00744634 26.809 0.930137 29.5195 2.66004 31.7088V31.7098ZM17 24.0198V24.0238C17.0066 26.3621 16.2213 28.6337 14.772 30.4688C13.4321 32.1657 11.5843 33.3893 9.49904 33.9608C7.41448 33.3889 5.56748 32.1653 4.22804 30.4688C2.77865 28.6338 1.99334 26.3621 2.00004 24.0238V20.4208C2.00004 20.3078 2.04504 20.2038 2.11704 20.1308C2.15045 20.0963 2.19038 20.0688 2.2345 20.0499C2.27862 20.0311 2.32605 20.0211 2.37404 20.0208H16.626C16.718 20.0208 16.811 20.0578 16.883 20.1308C16.9585 20.2083 17.0006 20.3125 17 20.4208V24.0188V24.0198Z" fill="white"/>
</svg>
