<svg width="163" height="185" viewBox="0 0 163 185" fill="none" xmlns="http://www.w3.org/2000/svg">
<path d="M161.72 103.312C157.73 113.297 141.99 117.227 126.425 111.989C110.939 106.797 101.495 94.5757 105.406 84.5455C109.272 74.5934 125.057 70.5857 140.667 75.745C156.199 80.8591 165.553 93.2368 161.72 103.312ZM129.478 159.156C122.624 167.591 107.273 165.601 94.9879 154.864C82.76 143.847 78.293 128.251 85.0238 119.848C91.7997 111.368 107.106 113.436 119.3 124.33C131.619 135.191 136.086 150.787 129.478 159.156ZM149.816 40.7257C148.513 51.8452 134.553 59.9267 118.76 59.244C102.958 58.0352 91.1292 48.498 92.3869 37.4565C93.6446 26.4151 107.481 18.3665 123.34 19.2958C139.199 20.2251 151.017 29.9637 149.816 40.7257ZM68.6485 181.312C59.9287 187.733 45.5862 182.368 36.8518 169.098C28.1175 155.829 28.1694 139.821 37.1028 133.211C46.0361 126.602 60.2101 132.077 69.1581 145.158C77.6456 158.493 77.6269 174.624 68.6485 181.312ZM-8.25313 119.522C-15.7959 115.584 -20.6948 105.257 -19.8714 96.7767C-18.2222 79.0882 4.65247 70.2176 13.626 54.675C22.5995 39.1324 18.3863 14.4144 33.2934 4.69271C41.6405 -0.90187 54.9339 -0.41244 62.8066 5.48665C73.6651 13.6303 71.8592 31.2284 75.6166 44.4363C80.302 61.8249 96.5483 81.6185 87.4846 97.3173C78.4659 112.938 53.2438 109.415 35.7994 113.402C21.2387 116.554 4.82917 126.346 -8.25313 119.522Z" fill="#B5CFDD"/>
</svg>
