<svg width="22" height="22" viewBox="0 0 22 22" fill="none" xmlns="http://www.w3.org/2000/svg">
<path d="M20.7167 22C21.0833 22 21.3889 21.8778 21.6333 21.6333C21.8778 21.3889 22 21.0833 22 20.7167V15.7667C22 15.4815 21.9083 15.2317 21.725 15.0174C21.5417 14.804 21.3074 14.6667 21.0222 14.6056L16.8056 13.75C16.5204 13.7093 16.2299 13.7345 15.9341 13.8258C15.6391 13.9179 15.4 14.0556 15.2167 14.2389L12.3444 17.1111C10.7963 16.1741 9.38056 15.0639 8.09722 13.7806C6.81389 12.4972 5.74444 11.1222 4.88889 9.65555L7.82222 6.66111C8.00556 6.47778 8.12289 6.26878 8.17422 6.03411C8.22474 5.80026 8.22963 5.54074 8.18889 5.25556L7.39444 0.977778C7.3537 0.692593 7.2213 0.458333 6.99722 0.275C6.77315 0.0916665 6.51852 0 6.23333 0H1.28333C0.916666 0 0.611111 0.122222 0.366667 0.366667C0.122221 0.611111 0 0.916667 0 1.28333C0 3.91111 0.585852 6.47248 1.75756 8.96744C2.92844 11.4632 4.47659 13.6734 6.402 15.598C8.32659 17.5234 10.5364 19.0716 13.0313 20.2424C15.5271 21.4141 18.0889 22 20.7167 22Z" fill="#3E3B2D"/>
</svg>
