<svg width="202" height="91" viewBox="0 0 202 91" fill="none" xmlns="http://www.w3.org/2000/svg">
<path d="M0.778313 73.7538C0.263829 73.9546 0.00954504 74.5344 0.210354 75.0489L3.48273 83.4329C3.68354 83.9474 4.2634 84.2017 4.77788 84.0009C5.29237 83.8001 5.54665 83.2202 5.34584 82.7057L2.43706 75.2533L9.88951 72.3445C10.404 72.1437 10.6583 71.5638 10.4575 71.0494C10.2567 70.5349 9.6768 70.2806 9.16232 70.4814L0.778313 73.7538ZM0.740303 75.6011C2.2394 76.2585 3.79309 76.91 5.39785 77.5522L6.14097 75.6954C4.5559 75.0611 3.02225 74.418 1.54352 73.7695L0.740303 75.6011ZM14.865 81.0204C17.9541 82.0538 21.1775 83.0412 24.5167 83.965L25.05 82.0374C21.7448 81.123 18.5552 80.146 15.4995 79.1237L14.865 81.0204ZM34.3303 86.4107C37.5507 87.1265 40.8528 87.7762 44.2229 88.3468L44.5568 86.3749C41.221 85.8101 37.9523 85.1669 34.7643 84.4583L34.3303 86.4107ZM54.2293 89.7741C57.5337 90.157 60.8874 90.4574 64.2785 90.6643L64.4002 88.668C61.0466 88.4634 57.7291 88.1662 54.4595 87.7874L54.2293 89.7741ZM74.3814 90.9923C77.7253 91.0038 81.0938 90.9172 84.4762 90.7224L84.3611 88.7257C81.0209 88.9181 77.6931 89.0037 74.3883 88.9923L74.3814 90.9923ZM94.5435 89.8163C97.8734 89.4057 101.207 88.8816 104.533 88.2341L104.151 86.271C100.872 86.9092 97.5844 87.4262 94.2988 87.8313L94.5435 89.8163ZM114.38 85.9403C117.617 85.0575 120.838 84.0471 124.034 82.9001L123.358 81.0177C120.214 82.1464 117.042 83.1412 113.854 84.0108L114.38 85.9403ZM133.415 79.0947C136.459 77.7107 139.471 76.1897 142.44 74.5232L141.461 72.7791C138.542 74.4173 135.581 75.9129 132.587 77.274L133.415 79.0947ZM151.049 69.1913C153.808 67.3135 156.52 65.295 159.177 63.1287L157.914 61.5785C155.301 63.7082 152.635 65.6923 149.924 67.538L151.049 69.1913ZM166.736 56.4142C169.118 54.113 171.445 51.6765 173.712 49.0989L172.21 47.7782C169.979 50.3153 167.689 52.7126 165.347 54.976L166.736 56.4142ZM180.088 41.2527C182.07 38.613 183.996 35.8482 185.86 32.9535L184.178 31.8708C182.34 34.7256 180.442 37.4509 178.488 40.0515L180.088 41.2527ZM191.039 24.2773C192.633 21.396 194.17 18.4024 195.649 15.293L193.842 14.4343C192.381 17.5075 190.862 20.4646 189.289 23.3093L191.039 24.2773ZM199.72 6.05929C200.357 4.49873 200.98 2.91207 201.589 1.29896L199.718 0.592505C199.115 2.18924 198.499 3.75941 197.868 5.30337L199.72 6.05929Z" fill="#C4630A"/>
</svg>
