<svg width="123" height="149" viewBox="0 0 123 149" fill="none" xmlns="http://www.w3.org/2000/svg">
<path d="M42.6268 50.8809C40.4682 50.244 38.6559 49.1798 37.1741 47.786L38.2018 46.6934C36.8594 45.4307 35.8024 43.8436 35.0316 42.0007L33.6478 42.5794C32.8676 40.7142 32.3704 38.642 32.1427 36.4462L33.6347 36.2914C33.4366 34.3816 33.4534 32.3583 33.6807 30.2837L32.1897 30.1203C32.4146 28.0676 32.8352 25.9794 33.4424 23.9108L34.8817 24.3333C35.4466 22.4088 36.1799 20.5016 37.0734 18.6609L35.7239 18.0059C36.6442 16.11 37.7279 14.2812 38.9672 12.5684L40.1825 13.4477C41.37 11.8065 42.7026 10.2822 44.171 8.91959L43.1506 7.8201C44.6986 6.38352 46.3953 5.11261 48.2327 4.05651L48.9802 5.35698C50.684 4.3776 52.5122 3.59646 54.4584 3.05512L54.0564 1.60998C56.0283 1.06149 58.1167 0.743579 60.315 0.696534L60.3471 2.19619C61.3214 2.17534 62.3208 2.21083 63.3449 2.30716L42.6268 50.8809ZM42.6268 50.8809L43.0513 49.4423C43.9247 49.7 44.8704 49.8827 45.8924 49.9789C46.7213 50.0566 47.5443 50.0525 48.3552 49.9724L48.5026 51.4652C50.3352 51.2842 52.1094 50.7557 53.7628 49.9351L53.096 48.5915C54.5666 47.8617 55.9414 46.8725 57.1631 45.6664L58.2169 46.7339C59.498 45.4691 60.6171 43.9925 61.5219 42.3507L60.2081 41.6267C60.6131 40.8919 60.9718 40.1207 61.2787 39.318C61.5274 38.6672 61.8338 37.8338 62.1774 36.8542L63.5929 37.3506C64.0942 35.9209 64.6713 34.1902 65.2619 32.2686L63.8281 31.8279C64.315 30.244 64.8108 28.5304 65.28 26.7506L66.7305 27.133C67.1763 25.4422 67.5988 23.6908 67.9683 21.9315L66.5003 21.6231C66.8651 19.8867 67.1758 18.1503 67.4042 16.4652L68.8906 16.6668C69.1413 14.8177 69.2967 13.0205 69.32 11.3402L67.8202 11.3194C67.8463 9.43632 67.6974 7.7742 67.3489 6.40403L68.8026 6.03424C68.3018 4.06567 67.4109 2.52778 66.0074 1.63764M42.6268 50.8809L66.0074 1.63764M66.0074 1.63764L65.204 2.90435C64.7167 2.59524 64.1127 2.37953 63.3451 2.30718L66.0074 1.63764ZM82.6065 112.82L82.531 112.753C81.8124 112.117 81.1585 111.467 80.5643 110.804L81.6818 109.803C80.4449 108.422 79.5 106.993 78.7837 105.525L77.4357 106.183C76.5909 104.453 76.0444 102.682 75.7034 100.894L77.1768 100.613C76.8548 98.9256 76.7244 97.2031 76.7024 95.4573L75.2025 95.4763C75.1802 93.7108 75.2653 91.9356 75.3739 90.1832L76.8711 90.276C76.906 89.7118 76.9437 89.1463 76.9815 88.5801C77.0586 87.4228 77.136 86.262 77.191 85.101L75.6927 85.03C75.7329 84.18 75.7606 83.3363 75.7672 82.4981L75.7672 82.4971C75.7752 81.5569 75.7032 80.6258 75.5559 79.7121L77.0368 79.4734C76.711 77.4522 76.0477 75.5103 75.0915 73.7239L73.769 74.4318C72.8906 72.7909 71.7432 71.2926 70.3678 70.0073L71.3921 68.9114C69.9307 67.5456 68.2326 66.4007 66.3393 65.5477L65.7231 66.9153C64.8839 66.5372 64.0021 66.2211 63.0818 65.9745L63.0779 65.9734C62.1902 65.733 61.2891 65.566 60.3833 65.4719L60.5384 63.9799C58.5547 63.7738 56.5505 63.8889 54.6035 64.3208L54.9283 65.7852C54.0393 65.9824 53.1632 66.2515 52.3089 66.592C51.4546 66.9325 50.6336 67.3397 49.8526 67.808L49.0812 66.5216C47.3708 67.5472 45.8367 68.8422 44.5386 70.3562L45.6773 71.3326C45.0851 72.0233 44.5463 72.7636 44.0676 73.5479C43.6373 74.2588 43.2322 74.9948 42.8412 75.7518L41.5085 75.0635C40.8123 76.4114 40.1728 77.7986 39.5328 79.1868C39.4377 79.3931 39.3426 79.5994 39.2473 79.8056L40.6088 80.435C39.8713 82.0307 39.1023 83.6636 38.2256 85.2407L36.9145 84.5119C36.0627 86.0443 35.1115 87.5115 33.9728 88.8545L35.1169 89.8246C33.9361 91.2173 32.5572 92.4971 30.8972 93.5959L30.0693 92.3451C28.7126 93.2431 27.1558 94.0078 25.3435 94.6021L25.8109 96.0274C24.9625 96.3056 24.0663 96.5472 23.1182 96.7498L23.0026 96.7745L22.8847 96.7808C21.7642 96.8406 20.7156 96.9347 19.7329 97.0673L19.5323 95.5808C17.1167 95.9069 15.0331 96.4617 13.2283 97.3189L13.8718 98.6738C12.076 99.5267 10.6004 100.705 9.35521 102.319L8.16752 101.403C6.9681 102.957 5.97097 104.866 5.12927 107.193L6.53982 107.703C6.20487 108.629 5.89301 109.632 5.60187 110.719C5.31737 111.78 5.14849 112.892 5.09224 114.033L3.59406 113.959C3.47615 116.351 3.81525 118.826 4.56178 121.214L5.99347 120.767C6.67074 122.934 7.70698 125.023 9.05652 126.884L7.842 127.765C9.27797 129.746 11.0473 131.491 13.1057 132.848L13.9311 131.596C14.8658 132.212 15.8625 132.739 16.9167 133.162L16.9375 133.17L16.9581 133.179C18.0404 133.651 19.106 134.074 20.1552 134.451L19.6484 135.863C21.9907 136.703 24.2615 137.323 26.4639 137.748L26.7482 136.275C29.0874 136.727 31.3419 136.95 33.5166 136.981L33.4953 138.481C35.935 138.516 38.2827 138.318 40.5432 137.932L40.2909 136.454C41.4222 136.261 42.532 136.019 43.621 135.733L44.448 135.517L45.0559 136.118C45.8567 136.91 46.6971 137.675 47.5807 138.408L46.623 139.562C48.3886 141.027 50.3236 142.372 52.4553 143.562L53.1864 142.252C55.0858 143.312 57.1509 144.246 59.4044 145.025L58.9146 146.442C61.0348 147.175 63.3121 147.774 65.7628 148.218L66.03 146.742C67.1274 146.94 68.2623 147.107 69.4365 147.24L69.4584 147.243L69.4802 147.246C70.6049 147.407 71.7322 147.449 72.8499 147.383L72.9379 148.881C75.3995 148.736 77.8052 148.111 80.0399 147.114L79.4288 145.744C81.5286 144.808 83.4704 143.517 85.14 141.979L86.1566 143.082C87.9949 141.387 89.5248 139.412 90.6182 137.278L89.2831 136.594C89.8034 135.578 90.2126 134.53 90.4976 133.467L82.6065 112.82ZM82.6065 112.82L82.6903 112.876C83.6238 113.501 84.4775 114.112 85.2549 114.717L86.1764 113.533C88.1069 115.036 89.626 116.537 90.7459 118.15L89.5136 119.005C90.6334 120.619 91.2989 122.343 91.5375 124.364L93.0272 124.188C93.2527 126.098 93.1324 128.227 92.6766 130.674M82.6065 112.82L92.6766 130.674M92.6766 130.674L91.202 130.399C91.0231 131.36 90.7886 132.38 90.4977 133.466L92.6766 130.674ZM83.8385 59.4799L82.9645 60.699C81.4676 59.6257 80.1947 58.2806 79.1723 56.7428L80.4214 55.9123C79.5121 54.5445 78.8152 53 78.3595 51.3442L76.9132 51.7422C76.4353 50.0059 76.2036 48.167 76.2403 46.2921L77.74 46.3214C77.7565 45.4828 77.831 44.6356 77.9662 43.7871C78.0765 43.0991 78.2281 42.224 78.4207 41.2038L76.9467 40.9255C77.2277 39.4369 77.5937 37.6496 78.0433 35.6903L79.5053 36.0257C79.8759 34.4107 80.3036 32.6789 80.7874 30.903L79.3401 30.5088C79.7997 28.8217 80.3097 27.0938 80.8695 25.3855L82.2949 25.8526C82.8474 24.1665 83.4467 22.5075 84.0915 20.934L82.7035 20.3653C83.411 18.6387 84.1751 17.0047 84.9951 15.5379L86.3044 16.2698C87.2233 14.626 88.1832 13.2609 89.17 12.2485L88.0959 11.2015C89.5138 9.74679 91.0542 8.86014 92.7144 8.79072L92.777 10.2894C93.3536 10.2653 93.9844 10.3804 94.6853 10.7016C95.6203 11.1303 96.5034 11.5993 97.3367 12.1046L98.1144 10.8219C99.9945 11.962 101.644 13.2816 103.077 14.7426L102.007 15.7931C103.421 17.2351 104.614 18.8256 105.6 20.5258L106.897 19.7733C107.961 21.6066 108.794 23.5555 109.417 25.5735L107.983 26.0156C108.574 27.9298 108.966 29.9162 109.174 31.9312L110.666 31.7772C110.883 33.8802 110.907 36.0057 110.756 38.1078L109.26 38.0004C109.114 40.0413 108.796 42.0596 108.323 44.0087L109.781 44.3623C109.272 46.4574 108.593 48.4762 107.762 50.3665L106.389 49.7627C105.548 51.6731 104.552 53.4339 103.426 54.9891L104.641 55.8688C103.346 57.6569 101.88 59.2032 100.272 60.4289L99.3623 59.236C97.7736 60.4472 96.0649 61.2937 94.2714 61.7164L94.6155 63.1764C92.6354 63.6431 90.5338 63.6589 88.346 63.1314L88.6976 61.6731C87.8123 61.4597 86.9018 61.145 85.9686 60.7172C85.2118 60.37 84.501 59.9548 83.8385 59.4799ZM24.6252 61.2887L24.6434 61.3329L24.6645 61.3759C25.041 62.1452 25.3486 62.9642 25.5796 63.8208L27.0279 63.4302C27.5161 65.2406 27.692 67.1908 27.5064 69.1844L26.0128 69.0453C25.9327 69.9062 25.7784 70.7774 25.5447 71.6496C25.3189 72.4921 25.0298 73.2966 24.6856 74.0581L26.0525 74.6759C25.2565 76.4371 24.1888 77.9955 22.9295 79.2982L21.8511 78.2556C20.6448 79.5034 19.2535 80.4819 17.7688 81.1427L18.3787 82.5131C16.6558 83.2799 14.805 83.6734 12.9312 83.6242L12.9706 82.1247C12.1658 82.1035 11.3562 81.9889 10.5516 81.7733C9.35278 81.4521 8.25509 80.9319 7.27502 80.2492L6.41761 81.48C4.17889 79.9204 2.48714 77.6233 1.51767 74.9388L2.92849 74.4293C2.51406 73.2817 2.24438 72.0505 2.13907 70.7691L2.13749 70.7499L2.13542 70.7307C2.04822 69.9243 1.98784 69.1001 1.95443 68.264L0.455622 68.3239C0.388043 66.6329 0.426823 64.9014 0.571175 63.1742L2.06596 63.2992C2.20455 61.641 2.44378 59.9892 2.78206 58.3873L1.31443 58.0774C1.67712 56.3598 2.15009 54.6935 2.73246 53.127L4.13844 53.6497C4.73191 52.0534 5.43746 50.5858 6.24749 49.297L4.9775 48.4988C5.94199 46.9642 7.05819 45.6414 8.32471 44.6103L9.27173 45.7735C9.86692 45.289 10.4905 44.8852 11.1418 44.5673C11.1421 44.5672 11.1424 44.567 11.1427 44.5669C11.1462 44.5652 11.1605 44.5595 11.1954 44.557C11.2389 44.5539 11.3182 44.556 11.4412 44.5839C11.6984 44.6424 12.0643 44.7946 12.5405 45.0943L13.3395 43.8249C14.6921 44.6762 16.2371 46.1683 17.7834 47.9638L16.6468 48.9426C17.8716 50.3648 19.1064 51.9947 20.2452 53.6514L21.4813 52.8017C22.704 54.5804 23.8118 56.3791 24.6826 57.9826L23.3645 58.6985C23.894 59.6735 24.3215 60.5529 24.6252 61.2887ZM118.76 73.4025L118.76 73.4028C119.166 74.0041 119.505 74.6659 119.778 75.3835L121.18 74.849C121.762 76.3752 122.068 78.0787 122.136 79.8898L120.637 79.9464C120.695 81.4675 120.572 83.0912 120.288 84.7705L121.767 85.0206C121.488 86.6685 121.065 88.348 120.521 90.017L119.095 89.5518C118.587 91.1085 117.968 92.6588 117.26 94.1644L118.617 94.8032C117.879 96.3715 117.047 97.8908 116.144 99.3219L114.876 98.5215C114.429 99.2293 113.965 99.9133 113.487 100.568L113.476 100.584L113.465 100.599C112.733 101.656 111.884 102.588 110.951 103.374L111.917 104.521C109.735 106.361 107.12 107.504 104.4 107.735L104.273 106.24C103.083 106.341 101.871 106.242 100.672 105.921C99.8676 105.705 99.1093 105.4 98.4019 105.016L97.6859 106.334C96.0394 105.439 94.6336 104.173 93.5249 102.647L94.7384 101.765C93.7831 100.451 93.0672 98.9076 92.6462 97.224L91.191 97.5879C90.7514 95.8302 90.6056 93.9469 90.7966 92.0238L92.2892 92.172C92.3718 91.3405 92.5236 90.4994 92.7493 89.6571C92.983 88.7849 93.2851 87.9534 93.6463 87.1679L92.2835 86.5412C93.1201 84.722 94.2484 83.1214 95.577 81.7979L96.6357 82.8605C97.2643 82.2343 97.9405 81.6787 98.6515 81.2006L98.6912 81.1739L98.7291 81.1447C99.3598 80.6595 100.17 80.1118 101.115 79.5322L100.332 78.2532C101.887 77.3002 103.746 76.2965 105.693 75.3675L106.339 76.7214C108.153 75.8561 110.037 75.0619 111.808 74.4425L111.313 73.0266C113.549 72.2445 115.633 71.7244 117.229 71.6628L117.287 73.1617C117.85 73.1399 118.243 73.1909 118.494 73.2687C118.615 73.3059 118.684 73.3436 118.72 73.3678C118.752 73.3898 118.76 73.4021 118.76 73.4025ZM54.8495 121.446L53.2585 127.414L54.7078 127.8L53.9123 130.784L53.5254 132.235L52.0747 131.847L48.9755 131.016L49.3638 129.567L43.1654 127.907L42.7772 129.355L39.6781 128.525L38.227 128.136L38.618 126.686L39.4217 123.704L40.87 124.095L42.4775 118.131L41.0292 117.741L41.4419 116.21L39.8773 115.79L40.2655 114.342L34.2342 112.725L33.846 114.174L30.8304 113.366L29.3815 112.978L29.7697 111.529L30.569 108.546L32.0178 108.935L33.6163 102.969L32.1675 102.581L32.9667 99.5979L33.3549 98.149L34.8038 98.5372L37.8202 99.3455L37.432 100.794L43.4648 102.411L43.853 100.962L45.4183 101.381L45.8264 99.849L47.2759 100.235L48.8655 94.267L47.416 93.8809L48.2108 90.8969L48.5974 89.4453L50.0485 89.8341L53.1476 90.6645L52.7594 92.1134L58.9577 93.7742L59.3459 92.3253L62.4451 93.1557L63.8958 93.5445L63.5053 94.9947L62.7023 97.9765L61.2539 97.5865L59.6479 103.55L61.0964 103.94L60.6839 105.472L62.0743 105.844L61.6861 107.293L67.3684 108.816L67.7566 107.367L70.5978 108.128L72.0467 108.516L71.6584 109.965L70.8592 112.948L69.4103 112.56L67.8118 118.526L69.2607 118.914L68.4615 121.897L68.0732 123.346L66.6243 122.957L63.7824 122.196L64.1707 120.747L58.4869 119.224L58.0987 120.673L56.7075 120.3L56.2989 121.833L54.8495 121.446Z" stroke="#B5CFDD" stroke-width="3" stroke-dasharray="6 6"/>
</svg>
